<?xml version="1.0" encoding="UTF-8"?>
<svg id="Capa_2" xmlns="http://www.w3.org/2000/svg" viewBox="0 0 157.76 137.46">
  <defs>
    <style>
      .cls-1 {
        fill: #e0418f;
      }
    </style>
  </defs>
  <g id="Capa_2-2" data-name="Capa_2">
    <path class="cls-1" d="M115.12,2.01c11.2-4.61,24.99-1.01,32.93,8.03,8.77,9.72,11.07,23.83,9,36.41-2.57,14.63-11.25,27.06-19.42,39.09-3.81,5.29-6.87,11.05-10.28,16.6-3.89,6.66-8.19,13.07-12.27,19.6-3.15,4.74-6.22,9.75-10.83,13.22-3.48,2.62-8.15,3.05-12.26,1.91-6.23-1.64-11.8-5.01-17.33-8.2-12.98-7.7-25.52-16.14-38.55-23.75-9.76-5.98-19.76-12.12-27.2-20.98C3.47,77.24-.15,68.8,0,60.08c-.19-9.73,4.37-19.16,11.32-25.81,4.99-5.08,11.56-8.73,18.67-9.67,7.53-1.11,15.14.79,22.08,3.62,11.21,4.62,21.15,11.66,31.23,18.29,5.86-10.63,8.81-22.76,16.06-32.63,3.98-5.35,9.58-9.4,15.75-11.87h0Z"/>
  </g>
</svg>