<?xml version="1.0" encoding="UTF-8"?>
<svg id="Capa_2" xmlns="http://www.w3.org/2000/svg" viewBox="0 0 323.85 276.91">
  <defs>
    <style>
      .cls-1 {
        fill: #e0418f;
      }
    </style>
  </defs>
  <g id="Capa_2-2" data-name="Capa_2">
    <path class="cls-1" d="M226.46,8.32C242.15,3.87,258.26.39,274.61.02c11.24-.2,23.1.93,32.88,6.95,6.93,4.18,11.66,11.58,12.84,19.56,2.47,15.43,2.9,31.1,3.37,46.69.69,41.85-1.03,83.7-3.34,125.48.21,7.14-2.69,14.46-8.17,19.14-5.07,4.22-11.34,6.6-17.55,8.59-15.46,4.68-31.62,6.47-47.66,7.9-35.37,2.87-70.9,2.69-106.35,2.23-5.1.06-10.37-1-15.3.77-11.83,3.92-21.03,12.72-30.2,20.76-8.7,7.66-18.27,15.11-29.82,17.72-3.98.85-8.62,2.08-12.31-.25-4.27-3.36-5.32-9.12-6.13-14.18-1.31-13.41-.44-26.91-.61-40.36-7.84-.81-16.16-2.46-22.22-7.88-5.9-5.31-8.42-13.22-10.02-20.76-5.1-26.63-9.68-53.36-13.51-80.2-1.13-9.22-.63-19.15,4.24-27.32,5.13-8.76,14.34-14.22,23.8-17.21,59.5-18.65,119.2-36.64,178.99-54.33,6.23-1.91,12.51-3.7,18.91-5h.01ZM212.63,23.85c-59.81,19.04-120.1,36.54-179.9,55.6-6.31,2.21-13.02,5.07-16.84,10.87-3.76,5.71-3.26,12.9-2.35,19.36,3.34,27.72,8.12,55.24,13.01,82.73.93,5.15,3.15,10.45,7.61,13.5,3.9,2.73,8.88,3.22,13.51,2.77,3.91-.34,8.46.86,10.52,4.49,2.46,4.22,1.72,9.29,1.61,13.94-.01,12.66-.01,25.33,0,38,4.57-3.11,9.42-5.9,13.42-9.77,14.08-13.09,27.88-26.46,41.85-39.65,3.54-3.15,7.8-6,12.67-6.29,42.81-2.03,85.7-2.7,128.46-5.77,6.97-.55,14.31-2.35,19.5-7.33,5.34-5.25,7.21-12.92,7.65-20.16,1.86-36.16,3.45-72.38,2.74-108.58-.4-8.28.13-16.75-2.21-24.8-1.93-7.04-5.99-13.56-11.89-17.94-9.55-7.07-22.08-8.56-33.6-7.18-8.78,1.18-17.28,3.75-25.76,6.22h0Z"/>
    <path class="cls-1" d="M182.51,55.6c11.2-4.61,24.99-1.01,32.93,8.03,8.77,9.72,11.07,23.83,9,36.41-2.57,14.63-11.25,27.06-19.42,39.09-3.81,5.29-6.87,11.05-10.28,16.6-3.89,6.66-8.19,13.07-12.27,19.6-3.15,4.74-6.22,9.75-10.83,13.22-3.48,2.62-8.15,3.05-12.26,1.91-6.23-1.64-11.8-5.01-17.33-8.2-12.98-7.7-25.52-16.14-38.55-23.75-9.76-5.98-19.76-12.12-27.2-20.98-5.44-6.7-9.06-15.14-8.9-23.86-.19-9.73,4.37-19.16,11.32-25.81,4.99-5.08,11.56-8.73,18.67-9.67,7.53-1.11,15.14.79,22.08,3.62,11.21,4.62,21.15,11.66,31.23,18.29,5.86-10.63,8.81-22.76,16.06-32.63,3.98-5.35,9.58-9.4,15.75-11.87h0Z"/>
  </g>
</svg>