<?xml version="1.0" encoding="UTF-8"?>
<svg id="Capa_2" xmlns="http://www.w3.org/2000/svg" viewBox="0 0 859.68 825.12">
  <defs>
    <style>
      .cls-1 {
        fill: #fff;
      }

      .cls-2 {
        fill: #e0418f;
      }
    </style>
  </defs>
  <g id="Layer_1">
    <g>
      <rect class="cls-1" width="859.68" height="825.12" rx="101.52" ry="101.52"/>
      <g>
        <g>
          <path d="M311.27,91.28c-1.5-3.7.46-8.79,4.6-9.63,2.85.26,5.35,1.93,7.51,3.72,1.32-.96,2.67-1.87,4.03-2.78,1.7-.09,3.41-.12,5.13-.1,3.22,2.94,3.44,7.78,1.58,11.52-2.18,4.39-5.97,8.61-11.08,9.26-5.82-1.31-9.89-6.59-11.77-11.99Z"/>
          <path d="M420.14,82.77c3.37-2.72,7.2.75,10.12,2.51,2.44-2.2,5.82-3.8,9.1-2.44.99.96,1.72,2.15,2.54,3.26,1.09,7.76-4.65,15.45-12.1,17.37-5.62-1.65-9.79-6.46-11.8-11.82-.37-3.06-.8-6.88,2.14-8.88Z"/>
          <path d="M444.94,84.78c1.28-1.13,2.41-2.8,4.19-3.11,2.88.14,5.29,1.97,7.56,3.56,2.56-1.9,5.66-3.65,8.96-2.55,2.33,1.81,3.88,4.95,2.99,7.91-1.53,5.81-5.85,11.49-12,12.69-4.15-.56-7.2-3.83-9.58-7.01-2.22-3.34-4.01-7.61-2.12-11.49Z"/>
          <path d="M314.4,108.58c1.25.02,2.5.04,3.75.07.57.3,1.69.9,2.25,1.2.99.7,1.99,1.4,2.99,2.1,2.04-1.46,4.22-2.79,6.69-3.38,2.02.2,3.32,2.1,4.78,3.32,1.96,7.26-3.1,14.6-9.52,17.61-4.22,1.28-7.77-1.96-10.31-4.89-3.18-3.65-5.66-9-3.14-13.68.84-.78,1.68-1.56,2.51-2.35Z"/>
          <path d="M341.23,108.47c3.41-.33,6.34,1.49,8.93,3.47,1.03-.73,2.08-1.46,3.11-2.2,1.62-.35,3.38-1.78,4.98-.65,4.99,2.15,4.36,9,1.86,12.87-2.52,4.14-6.89,8.91-12.27,7.52-6.38-3.06-11.25-10.07-10.02-17.34,1.11-1.24,2.25-2.47,3.41-3.67Z"/>
          <path d="M365.99,109.58c1.67-.71,3.44-1.04,5.25-1.09,1.82,1.09,3.61,2.22,5.52,3.15,2.14-1.03,4.15-2.37,6.45-3.04,3.78.26,6.15,4.52,5.57,8.03-1.1,5.01-4.23,9.66-8.75,12.19-1.64,1.08-3.76,1.06-5.61.65-5.6-2.77-9.64-8.46-10.47-14.64.55-1.8,1.33-3.52,2.04-5.25Z"/>
          <path d="M394.4,108.58c1.25.02,2.5.04,3.75.07.57.3,1.69.9,2.25,1.2.99.7,1.99,1.4,2.99,2.1,2.63-1.56,6.46-5.08,9.3-2.06.74.64,1.46,1.3,2.17,1.99,1.91,6.97-2.71,13.94-8.66,17.21-1.48.86-3.31.69-4.93.43-5.1-2.44-8.98-7.35-10.37-12.82-.44-2,.3-3.93.99-5.77.84-.78,1.68-1.56,2.51-2.35Z"/>
          <path d="M445.99,109.58c1.67-.71,3.44-1.04,5.25-1.08,1.82,1.08,3.62,2.21,5.52,3.14,2.91-1.1,6.13-4.59,9.2-2.01,2.13,1.5,3.24,4.49,2.81,7.06-1.22,5.48-4.9,10.57-10.14,12.8-1.68.29-3.62.51-5.11-.48-5.11-2.95-8.83-8.34-9.55-14.21.53-1.79,1.32-3.49,2.02-5.22Z"/>
          <path d="M447.27,135.47c3.59-.7,6.87.84,9.5,3.17,2.4-1.95,5.2-3.47,8.41-3.23,2,1.89,4.02,4.31,3.66,7.26-.86,5.81-4.91,11.12-10.27,13.5-2.4,1.31-4.81-.37-6.78-1.62-3.13-1.99-4.99-5.31-6.79-8.43-.88-2.69-1.29-5.42-.02-8.06.76-.86,1.53-1.72,2.29-2.59Z"/>
          <path d="M313.83,162.52c3.29-2.13,6.95.87,9.55,2.85,1.32-.97,2.67-1.87,4.03-2.78,1.7-.09,3.41-.12,5.13-.1,3.23,2.94,3.44,7.79,1.57,11.53-2.18,4.39-5.97,8.6-11.08,9.25-5.82-1.33-9.89-6.6-11.76-12-1.2-3.02-.18-6.97,2.56-8.75Z"/>
          <path d="M340.14,162.77c3.37-2.71,7.19.74,10.11,2.51,2.44-2.2,5.8-3.77,9.08-2.47,1,.97,1.74,2.16,2.57,3.28,1.1,7.76-4.65,15.46-12.09,17.38-5.62-1.65-9.79-6.45-11.81-11.8-.37-3.07-.8-6.9,2.14-8.9Z"/>
          <path d="M364.94,164.78c1.29-1.13,2.43-2.84,4.23-3.11,2.86.15,5.26,1.98,7.52,3.56,2.56-1.91,5.67-3.65,8.96-2.55,2.3,1.79,3.83,4.86,3.02,7.79-1.5,5.85-5.84,11.61-12.04,12.81-4.15-.57-7.19-3.84-9.57-7.01-2.22-3.34-4.01-7.61-2.12-11.49Z"/>
          <path d="M444.94,164.78c1.29-1.14,2.43-2.84,4.23-3.11,2.86.16,5.26,1.97,7.52,3.56,2.56-1.91,5.68-3.64,8.97-2.55,2.29,1.8,3.82,4.85,3.02,7.78-1.51,5.85-5.83,11.6-12.03,12.81-4.16-.53-7.2-3.83-9.59-7-2.21-3.34-4.01-7.61-2.12-11.49Z"/>
          <path d="M473.77,162.56c3.3-2.21,7,.83,9.62,2.8,1.31-.96,2.66-1.86,4.01-2.77,1.71-.09,3.42-.12,5.14-.1,3.22,2.94,3.44,7.77,1.58,11.52-2.18,4.39-5.97,8.59-11.07,9.26-5.83-1.31-9.9-6.6-11.79-12-1.18-3-.18-6.9,2.51-8.71Z"/>
          <path d="M498.6,178.68c-.45-6.01,3.02-13.23,9.48-14.23,6.03-.42,11.15,3.48,15.66,6.98,3.83-3.01,8.08-6.22,13.17-6.3,3.2-.22,6.16,1.67,7.9,4.26,3.66,4.7,3.16,11.35,1.35,16.69-3.43,8.69-9.98,16.7-18.82,20.21-5.38,2.44-10.98-.94-15.1-4.27-6.91-5.94-12.78-14.03-13.64-23.34Z"/>
          <path d="M366,189.58c1.66-.71,3.43-1.05,5.24-1.09,1.82,1.09,3.61,2.23,5.53,3.15,2.9-1.11,6.14-4.6,9.21-2,2.1,1.49,3.2,4.43,2.8,6.97-1.09,5.01-4.21,9.66-8.72,12.19-1.66,1.1-3.83,1.11-5.69.65-5.57-2.78-9.59-8.46-10.42-14.63.55-1.8,1.33-3.51,2.05-5.24Z"/>
          <path d="M367.27,215.48c3.58-.7,6.87.82,9.5,3.16,2.4-1.95,5.2-3.46,8.41-3.23,2.29,2.06,4.41,5,3.52,8.27-1.51,6.21-6.44,12.36-13.11,13.12-4.74-2.15-8.33-6.02-10.58-10.66-.87-2.7-1.33-5.43-.03-8.08.76-.86,1.53-1.72,2.29-2.58Z"/>
          <path d="M390.98,223.67c-1.05-3.68,1.62-9.08,5.96-8.3,2.55.08,4.49,1.9,6.5,3.23,1.62-1.08,3.27-2.1,4.94-3.11,1.98.05,4.48.05,5.58,2.05,3.12,4.9.31,11.08-3.33,14.85-2.21,2.18-5.21,4.65-8.51,4.1-5.53-2.07-9.58-7.22-11.14-12.82Z"/>
          <path d="M417.81,218.98c1.15-1.36,1.92-3.59,4.03-3.56,3.18-.67,5.83,1.46,8.25,3.17,2.43-1.88,5.24-3.41,8.42-3.13,1.17,1.27,2.3,2.57,3.39,3.91.86,5.9-2.23,11.68-6.94,15.08-2,1.23-4.4,2.97-6.82,1.82-6.39-3.04-11.53-9.95-10.33-17.29Z"/>
          <path d="M527.27,215.47c3.58-.7,6.87.84,9.5,3.17,2.4-1.94,5.19-3.46,8.39-3.23,2.02,1.86,4.03,4.29,3.69,7.24-.87,5.84-4.94,11.17-10.34,13.55-2.39,1.26-4.76-.41-6.72-1.65-3.12-1.99-4.99-5.31-6.79-8.43-.88-2.69-1.3-5.42-.02-8.06.76-.86,1.53-1.72,2.29-2.59Z"/>
          <path d="M311.27,251.27c-1.49-3.67.43-8.73,4.53-9.6,2.88.18,5.41,1.92,7.59,3.69,1.31-.96,2.67-1.87,4.02-2.78,1.7-.08,3.42-.11,5.13-.09,3.23,2.94,3.44,7.8,1.57,11.55-2.19,4.37-5.98,8.59-11.08,9.22-5.82-1.31-9.88-6.59-11.76-11.99Z"/>
          <path d="M364.93,244.78c1.3-1.13,2.45-2.86,4.26-3.11,2.86.16,5.24,1.98,7.5,3.56,2.56-1.91,5.67-3.65,8.96-2.55,2.33,1.81,3.87,4.94,2.99,7.9-1.52,5.81-5.85,11.51-12.02,12.7-4.14-.57-7.18-3.84-9.56-7.01-2.22-3.34-4-7.6-2.13-11.49Z"/>
          <path d="M420.14,242.77c3.37-2.72,7.2.75,10.12,2.51,2.44-2.2,5.81-3.79,9.09-2.45.99.96,1.73,2.15,2.55,3.26,1.1,7.76-4.65,15.46-12.1,17.38-5.62-1.65-9.78-6.46-11.8-11.8-.37-3.07-.81-6.9,2.14-8.9Z"/>
          <path d="M471.27,251.29c-1.5-3.69.42-8.65,4.46-9.63,2.92.19,5.45,1.91,7.66,3.7,1.31-.96,2.66-1.86,4.02-2.78,1.7-.08,3.41-.12,5.13-.09,3.2,2.91,3.44,7.71,1.61,11.44-2.16,4.43-5.97,8.67-11.1,9.34-5.82-1.3-9.89-6.58-11.78-11.98Z"/>
          <path d="M524.94,244.78c1.46-1.25,2.85-3.5,5.06-3.06,2.52.53,4.64,2.03,6.69,3.51,2.56-1.91,5.66-3.65,8.96-2.55,2.33,1.81,3.87,4.94,2.99,7.9-1.52,5.81-5.85,11.5-12.01,12.7-4.15-.57-7.19-3.83-9.57-7.01-2.21-3.34-4.01-7.6-2.12-11.49Z"/>
          <path d="M314.23,268.54c1.31.04,2.62.08,3.94.12.55.3,1.67.89,2.23,1.19.99.69,1.99,1.39,2.99,2.1,2.63-1.56,6.47-5.09,9.31-2.06.74.64,1.46,1.31,2.16,2,1.85,6.72-2.42,13.42-8.01,16.85-2.29,1.49-5.53,1.33-7.68-.35-4.18-3-7.71-7.49-8.36-12.7-.43-2.88,1.56-5.23,3.42-7.15Z"/>
          <path d="M341.23,268.47c3.41-.33,6.34,1.49,8.92,3.47,1.04-.73,2.08-1.46,3.12-2.2,1.78-.5,3.77-1.86,5.47-.4,4.52,2.44,3.73,8.87,1.37,12.61-2.52,4.15-6.89,8.92-12.27,7.53-6.38-3.06-11.25-10.08-10.02-17.34,1.11-1.25,2.25-2.47,3.41-3.67Z"/>
          <path d="M394.23,268.54c1.3.04,2.62.08,3.94.12.56.3,1.67.89,2.23,1.19.99.69,1.99,1.39,2.99,2.1,2.63-1.57,6.47-5.08,9.31-2.06.74.64,1.46,1.3,2.16,1.99,1.86,6.73-2.42,13.43-8.01,16.86-2.29,1.48-5.53,1.33-7.68-.35-4.18-3-7.73-7.51-8.36-12.73-.42-2.87,1.57-5.21,3.42-7.12Z"/>
          <path d="M501.23,268.47c3.41-.33,6.34,1.49,8.93,3.47,1.03-.73,2.07-1.46,3.11-2.2,1.62-.35,3.37-1.8,4.98-.64,4.99,2.14,4.35,9,1.85,12.86-2.51,4.14-6.88,8.91-12.26,7.52-6.38-3.06-11.24-10.07-10.02-17.34,1.11-1.24,2.25-2.47,3.41-3.67Z"/>
          <path d="M525.99,269.58c1.67-.71,3.44-1.05,5.26-1.09,1.79,1.08,3.58,2.21,5.46,3.16,2.93-1.07,6.16-4.61,9.24-2.03,2.13,1.49,3.24,4.47,2.83,7.02-1.21,5.49-4.88,10.6-10.13,12.85-1.7.29-3.66.51-5.16-.5-4.53-2.63-7.96-7.15-9.17-12.25-1.06-2.51.98-4.84,1.67-7.16Z"/>
          <path d="M97.81,298.98c1.15-1.38,1.95-3.62,4.08-3.57,3.17-.64,5.79,1.48,8.2,3.19,2.43-1.89,5.24-3.41,8.42-3.14,1.17,1.27,2.31,2.57,3.39,3.92.86,5.9-2.24,11.7-6.97,15.09-2.01,1.26-4.49,3-6.93,1.74-6.32-3.08-11.39-9.94-10.19-17.23Z"/>
          <path d="M153.97,295.7c3.49-1.34,6.82.83,9.47,2.9,1.62-1.08,3.27-2.1,4.93-3.11,1.96.06,4.41.03,5.54,1.97,3.19,4.89.39,11.13-3.26,14.91-2.22,2.2-5.2,4.65-8.52,4.13-5.53-2.08-9.58-7.22-11.15-12.82-.84-2.99.6-6.15,2.99-7.98Z"/>
          <path d="M177.81,298.98c1.15-1.36,1.93-3.6,4.04-3.56,3.18-.66,5.82,1.46,8.24,3.18,2.43-1.89,5.24-3.41,8.42-3.14,1.17,1.26,2.3,2.57,3.39,3.91.87,5.9-2.24,11.69-6.95,15.09-2.03,1.26-4.52,3.01-6.97,1.74-6.31-3.09-11.37-9.94-10.17-17.22Z"/>
          <path d="M230.98,303.68c-1.05-3.67,1.59-9.07,5.94-8.32,2.55.09,4.51,1.9,6.52,3.24,1.62-1.08,3.27-2.1,4.93-3.11,1.98.05,4.45.04,5.57,2.01,3.15,4.89.35,11.1-3.3,14.88-2.22,2.19-5.23,4.68-8.54,4.1-5.52-2.08-9.55-7.21-11.12-12.8Z"/>
          <path d="M257.82,298.97c1.14-1.36,1.92-3.58,4.02-3.55,3.18-.67,5.83,1.46,8.25,3.17,2.43-1.88,5.24-3.41,8.42-3.13,1.17,1.26,2.3,2.57,3.39,3.91.87,5.91-2.24,11.71-6.97,15.1-1.86,1.12-3.92,2.66-6.22,2.03-5.15-1.96-8.63-6.65-10.84-11.51-.03-2.01-.04-4.02-.05-6.02Z"/>
          <path d="M287.27,295.47c3.59-.7,6.87.83,9.5,3.17,2.4-1.94,5.2-3.47,8.4-3.23,2.02,1.88,4.04,4.31,3.67,7.28-.87,5.79-4.9,11.08-10.24,13.47-2.41,1.33-4.85-.36-6.84-1.63-3.11-1.99-4.96-5.3-6.76-8.41-.87-2.69-1.29-5.42-.02-8.06.77-.86,1.53-1.72,2.29-2.59Z"/>
          <path d="M337.81,298.98c1.14-1.35,1.91-3.57,4-3.55,3.2-.7,5.86,1.46,8.3,3.17,2.42-1.91,5.23-3.41,8.4-3.14,1.17,1.27,2.3,2.57,3.39,3.92,1.15,7.56-4.21,14.42-10.85,17.37-5.5-.3-9.54-4.98-12.03-9.47-1.65-2.48-1.13-5.5-1.21-8.3Z"/>
          <path d="M472.94,296.63c3.13-3.06,7.71-.28,10.49,1.96,2.42-1.58,4.98-3.74,8.08-2.94,3.76,1.45,4.43,6.31,3.32,9.74-1.68,5.14-5.76,9.85-11.13,11.23-4.08-.17-7.19-3.47-9.61-6.46-2.78-3.78-5.12-9.69-1.15-13.53Z"/>
          <path d="M527.27,295.48c3.58-.71,6.87.82,9.5,3.16,2.4-1.95,5.2-3.47,8.41-3.23,2.01,1.89,4.03,4.32,3.66,7.29-.74,5.21-4.12,9.8-8.49,12.61-1.76.99-4.03,1.99-5.92.75-4.43-1.83-7.26-5.86-9.43-9.94-.88-2.69-1.29-5.42-.02-8.06.76-.86,1.53-1.72,2.29-2.58Z"/>
          <path d="M577.81,298.98c1.14-1.35,1.91-3.58,4.01-3.56,3.19-.68,5.84,1.46,8.27,3.18,2.43-1.89,5.24-3.42,8.42-3.14,1.17,1.27,2.3,2.57,3.39,3.92.86,5.91-2.25,11.71-6.97,15.1-1.98,1.21-4.36,2.91-6.76,1.81-6.41-3.04-11.56-9.95-10.36-17.31Z"/>
          <path d="M657.82,298.97c1.14-1.38,1.94-3.61,4.07-3.56,3.16-.64,5.79,1.48,8.2,3.19,2.43-1.89,5.24-3.42,8.42-3.14,1.16,1.27,2.3,2.57,3.39,3.92,1.08,7.59-4.46,15.62-11.91,17.25-5.89-1-9.73-6.58-12.12-11.65-.03-2.01-.04-4.01-.05-6.01Z"/>
          <path d="M710.98,303.67c-1.05-3.67,1.6-9.05,5.93-8.31,2.55.08,4.51,1.9,6.53,3.24,1.61-1.08,3.27-2.1,4.93-3.11,1.96.05,4.41.03,5.54,1.97,3.19,4.9.39,11.13-3.27,14.92-2.21,2.19-5.2,4.64-8.5,4.12-5.54-2.07-9.6-7.23-11.16-12.83Z"/>
          <path d="M737.82,298.97c1.14-1.36,1.91-3.58,4.02-3.55,3.18-.67,5.83,1.46,8.25,3.18,2.43-1.89,5.24-3.42,8.42-3.14,1.16,1.26,2.3,2.57,3.39,3.91,1.09,7.64-4.58,15.89-12.17,17.26-5.75-1.23-9.5-6.61-11.86-11.65-.04-2-.04-4.01-.05-6.01Z"/>
          <path d="M100.15,322.77c3.36-2.73,7.19.75,10.11,2.51,2.45-2.2,5.86-3.83,9.13-2.41.98.95,1.7,2.12,2.51,3.22,1.1,7.76-4.65,15.46-12.1,17.38-5.61-1.65-9.78-6.45-11.8-11.79-.38-3.07-.8-6.92,2.15-8.91Z"/>
          <path d="M124.93,324.78c1.3-1.13,2.45-2.85,4.25-3.11,2.86.16,5.25,1.97,7.51,3.56,2.56-1.91,5.67-3.65,8.96-2.55,2.27,1.77,3.8,4.78,3.05,7.69-1.48,5.89-5.83,11.69-12.07,12.91-4.14-.56-7.19-3.84-9.57-7.01-2.22-3.34-4-7.6-2.13-11.49Z"/>
          <path d="M151.27,331.27c-1.49-3.68.42-8.61,4.44-9.61,2.92.17,5.47,1.9,7.67,3.71,1.32-.97,2.68-1.87,4.03-2.79,1.71-.09,3.42-.12,5.13-.09,3.22,2.94,3.44,7.78,1.58,11.53-2.19,4.39-5.99,8.62-11.11,9.25-5.81-1.34-9.87-6.6-11.74-12Z"/>
          <path d="M204.94,324.78c1.46-1.25,2.85-3.51,5.07-3.06,2.51.54,4.63,2.03,6.68,3.51,2.56-1.91,5.67-3.65,8.96-2.55,2.28,1.78,3.82,4.82,3.04,7.74-1.5,5.87-5.84,11.64-12.05,12.86-4.15-.56-7.2-3.83-9.58-7.01-2.21-3.34-4.01-7.61-2.12-11.49Z"/>
          <path d="M231.27,331.28c-1.61-3.82.72-9.44,5.21-9.61,2.6.58,4.9,1.99,6.9,3.7,1.32-.97,2.67-1.87,4.03-2.78,1.7-.09,3.41-.13,5.13-.1,3.23,2.94,3.44,7.79,1.57,11.54-2.18,4.38-5.97,8.59-11.08,9.24-5.81-1.32-9.88-6.59-11.76-11.99Z"/>
          <path d="M284.94,324.78c1.46-1.25,2.85-3.5,5.06-3.06,2.51.53,4.64,2.03,6.7,3.51,2.55-1.91,5.66-3.64,8.95-2.55,2.31,1.8,3.85,4.89,3.01,7.84-1.51,5.83-5.84,11.55-12.02,12.76-4.15-.56-7.21-3.84-9.58-7.02-2.22-3.34-4.01-7.6-2.12-11.48Z"/>
          <path d="M364.94,324.78c1.29-1.13,2.44-2.86,4.25-3.11,2.86.16,5.24,1.98,7.5,3.56,2.56-1.91,5.67-3.65,8.96-2.55,2.3,1.79,3.83,4.86,3.02,7.8-1.51,5.85-5.84,11.59-12.04,12.8-4.14-.56-7.19-3.83-9.57-7.01-2.22-3.34-4.01-7.6-2.12-11.49Z"/>
          <path d="M471.27,331.29c-1.5-3.68.41-8.63,4.43-9.62,2.93.14,5.48,1.9,7.68,3.7,1.32-.97,2.67-1.87,4.03-2.78,1.7-.09,3.41-.13,5.13-.1,3.21,2.92,3.44,7.73,1.6,11.46-2.17,4.42-5.98,8.65-11.1,9.32-5.82-1.31-9.88-6.58-11.77-11.98Z"/>
          <path d="M713.8,322.54c3.29-2.17,6.98.85,9.59,2.82,1.31-.96,2.66-1.86,4.02-2.77,1.69-.09,3.41-.13,5.13-.1,3.23,2.94,3.43,7.79,1.57,11.54-2.18,4.38-5.97,8.58-11.06,9.24-5.83-1.31-9.9-6.59-11.78-12-1.2-3.01-.19-6.94,2.53-8.73Z"/>
          <path d="M524.93,324.77c1.16-1.14,2.31-2.33,3.77-3.1,3.04-.08,5.61,1.9,7.99,3.56,2.56-1.91,5.67-3.65,8.96-2.55,2.29,1.79,3.83,4.85,3.03,7.78-1.51,5.85-5.84,11.62-12.05,12.82-4.15-.57-7.2-3.84-9.57-7.02-2.23-3.34-4-7.6-2.13-11.49Z"/>
          <path d="M604.94,324.77c1.56-1.34,3.16-3.85,5.55-2.93,2.32.6,4.28,2.01,6.2,3.39,2.56-1.9,5.67-3.65,8.96-2.55,2.3,1.8,3.83,4.86,3.02,7.79-1.51,5.85-5.84,11.61-12.05,12.81-4.14-.57-7.18-3.84-9.56-7.01-2.22-3.35-4.01-7.61-2.12-11.5Z"/>
          <path d="M154.22,348.54c1.32.04,2.63.07,3.95.12.56.3,1.67.89,2.23,1.19,1,.69,1.99,1.39,2.99,2.1,2.63-1.56,6.47-5.08,9.31-2.06.74.64,1.46,1.3,2.16,1.99,1.86,6.73-2.43,13.44-8.03,16.88-2.29,1.47-5.51,1.3-7.66-.37-4.19-3.01-7.73-7.51-8.36-12.74-.41-2.87,1.57-5.2,3.41-7.11Z"/>
          <path d="M181.23,348.47c3.41-.33,6.34,1.49,8.93,3.47,1.04-.73,2.08-1.46,3.11-2.2,1.61-.34,3.37-1.78,4.96-.66,5,2.14,4.38,9.01,1.88,12.88-2.52,4.14-6.89,8.9-12.27,7.52-6.38-3.06-11.25-10.07-10.02-17.34,1.11-1.25,2.25-2.47,3.41-3.67Z"/>
          <path d="M261.23,348.47c3.41-.33,6.34,1.49,8.92,3.47,1.04-.73,2.09-1.46,3.13-2.2,1.61-.35,3.36-1.8,4.97-.64,4.99,2.13,4.36,8.99,1.86,12.85-2.52,4.14-6.87,8.9-12.24,7.54-6.4-3.04-11.28-10.07-10.05-17.35,1.11-1.25,2.25-2.47,3.41-3.67Z"/>
          <path d="M365.99,349.58c1.67-.71,3.44-1.05,5.25-1.09,1.82,1.09,3.61,2.22,5.52,3.15,2.91-1.1,6.12-4.59,9.2-2.02,2.11,1.49,3.22,4.46,2.82,7.01-1.1,5.02-4.24,9.69-8.78,12.2-1.64,1.07-3.76,1.06-5.6.63-5.58-2.79-9.7-8.5-10.42-14.7.54-1.77,1.3-3.47,2.01-5.18Z"/>
          <path d="M394.4,348.58c1.25.01,2.5.04,3.76.07l2.24,1.2c.99.69,1.99,1.39,2.99,2.1,2.23-1.47,4.62-3.27,7.39-3.33,1.58.78,2.81,2.07,4.08,3.26,1.97,7.26-3.09,14.59-9.5,17.61-3.74,1.19-7.07-1.35-9.47-3.93-3.61-3.76-6.72-9.51-4-14.63.84-.78,1.68-1.56,2.51-2.35Z"/>
          <path d="M421.23,348.47c3.41-.33,6.34,1.49,8.92,3.47,1.04-.73,2.08-1.46,3.12-2.2,1.62-.35,3.37-1.79,4.97-.65,5,2.14,4.37,9,1.87,12.86-2.52,4.15-6.88,8.91-12.26,7.54-6.39-3.06-11.26-10.08-10.03-17.35,1.11-1.25,2.25-2.47,3.41-3.67Z"/>
          <path d="M525.1,364.63c.16-5.49,3-11.89,8.76-13.36,6.32-1.01,11.8,3.15,16.5,6.8,3.93-3.07,8.32-6.21,13.5-6.34,4.59-.02,8.18,3.91,9.56,8,2.15,6.44-.16,13.39-3.47,19-4.11,6.62-10.07,12.66-17.74,14.83-4.31,1.18-8.46-1.39-11.86-3.73-7.91-6.11-14.28-15.05-15.25-25.2Z"/>
          <path d="M177.81,378.98c1.15-1.35,1.92-3.58,4.02-3.56,3.18-.67,5.84,1.46,8.26,3.18,2.43-1.89,5.24-3.41,8.42-3.14,1.17,1.26,2.3,2.57,3.39,3.91,1.15,7.56-4.2,14.41-10.83,17.37-5.51-.26-9.56-4.97-12.05-9.46-1.65-2.48-1.13-5.5-1.21-8.3Z"/>
          <path d="M367.27,375.48c3.59-.71,6.87.82,9.5,3.16,2.4-1.95,5.2-3.47,8.41-3.23,2.01,1.89,4.04,4.32,3.66,7.29-.88,5.8-4.91,11.09-10.26,13.47-2.4,1.31-4.82-.36-6.8-1.62-3.12-1.99-4.97-5.3-6.77-8.41-.87-2.7-1.33-5.43-.03-8.08.76-.86,1.53-1.72,2.29-2.58Z"/>
          <path d="M417.81,378.98c1.14-1.35,1.91-3.58,4-3.56,3.2-.69,5.85,1.47,8.29,3.17,2.43-1.89,5.23-3.41,8.41-3.13,1.17,1.26,2.3,2.56,3.39,3.91,1.15,7.56-4.21,14.42-10.84,17.38-5.51-.29-9.55-4.98-12.04-9.47-1.65-2.48-1.13-5.5-1.21-8.3Z"/>
          <path d="M447.25,375.48c3.59-.7,6.89.82,9.52,3.16,2.4-1.94,5.2-3.47,8.41-3.23,2,1.88,4.02,4.31,3.67,7.26-.73,5.21-4.11,9.8-8.47,12.63-1.76.99-4.03,2.01-5.93.77-4.41-1.83-7.29-5.83-9.42-9.93-.32-1.53-.74-3.03-1.18-4.52.44-1.19.85-2.39,1.21-3.6.73-.85,1.46-1.7,2.19-2.54Z"/>
          <path d="M630.98,383.68c-1.05-3.68,1.61-9.08,5.96-8.32,2.54.09,4.49,1.9,6.5,3.24,1.61-1.08,3.27-2.1,4.93-3.11,1.97.05,4.43.03,5.56,2,3.16,4.89.36,11.11-3.29,14.89-2.21,2.19-5.2,4.64-8.5,4.12-5.54-2.07-9.59-7.22-11.16-12.82Z"/>
          <path d="M657.82,378.97c1.14-1.36,1.91-3.58,4.02-3.55,3.18-.67,5.83,1.46,8.25,3.17,2.43-1.88,5.24-3.4,8.42-3.13,1.16,1.26,2.3,2.57,3.39,3.91,1.09,7.63-4.53,15.77-12.06,17.27-5.81-1.15-9.61-6.61-11.97-11.66-.03-2.01-.04-4.01-.05-6.01Z"/>
          <path d="M687.25,375.48c3.59-.7,6.89.82,9.52,3.16,2.4-1.95,5.2-3.47,8.41-3.23,2.3,2.06,4.41,5.01,3.51,8.28-1.51,6.21-6.43,12.34-13.09,13.11-4.73-2.15-8.36-5.99-10.57-10.66-.32-1.53-.74-3.03-1.18-4.51.44-1.19.85-2.39,1.21-3.61.72-.85,1.45-1.7,2.19-2.54Z"/>
          <path d="M98.77,393.58c-1.05-6.12,1.85-13.63,8.17-15.57,6.39-1.21,11.98,3.04,16.74,6.72,3.43-2.59,7.02-5.3,11.36-6.06,3.68-.93,7.68.86,9.75,3.96,3.53,4.57,3.18,10.91,1.61,16.16-3.1,8.49-9.22,16.07-17.33,20.19-4.27,2.27-9.63,1.63-13.49-1.19-8.27-5.59-15.05-14.22-16.81-24.21Z"/>
          <path d="M204.94,404.78c1.29-1.13,2.43-2.84,4.23-3.11,2.86.15,5.26,1.97,7.53,3.56,2.55-1.91,5.66-3.65,8.95-2.55,2.31,1.8,3.84,4.88,3.02,7.82-1.52,5.81-5.83,11.59-12.01,12.75-4.16-.47-7.21-3.83-9.6-6.98-2.21-3.34-4.01-7.61-2.12-11.49Z"/>
          <path d="M231.26,411.27c-1.53-3.78.58-9.06,4.9-9.65,2.72.5,5.14,1.98,7.23,3.74,1.31-.96,2.67-1.87,4.02-2.78,1.7-.09,3.42-.12,5.13-.09,3.22,2.94,3.44,7.78,1.58,11.52-2.19,4.39-5.98,8.61-11.08,9.26-5.83-1.32-9.9-6.6-11.78-12Z"/>
          <path d="M260.82,402.36c1.71-1.38,3.75-.15,5.54.34,1.28.86,2.57,1.73,3.84,2.61,2.46-2.2,5.85-3.84,9.15-2.48.99.96,1.73,2.14,2.55,3.25,1.11,7.77-4.65,15.47-12.1,17.39-5.61-1.65-9.78-6.45-11.8-11.8-.51-3.29-.69-7.59,2.82-9.31Z"/>
          <path d="M500.14,402.77c3.37-2.71,7.19.74,10.11,2.5,2.45-2.2,5.85-3.81,9.13-2.41.98.96,1.7,2.13,2.52,3.23,1.1,7.77-4.65,15.46-12.1,17.38-5.61-1.65-9.78-6.46-11.8-11.8-.37-3.07-.81-6.9,2.14-8.9Z"/>
          <path d="M551.27,411.28c-1.62-3.83.72-9.44,5.22-9.61,2.59.58,4.88,1.99,6.89,3.7,1.31-.97,2.67-1.87,4.03-2.78,1.7-.1,3.41-.13,5.13-.1,3.19,2.91,3.43,7.7,1.62,11.42-2.16,4.44-5.98,8.68-11.11,9.36-5.83-1.31-9.9-6.59-11.78-11.99Z"/>
          <path d="M580.15,402.77c3.36-2.72,7.18.74,10.1,2.5,2.45-2.2,5.84-3.8,9.12-2.42.98.96,1.71,2.13,2.53,3.25,1.09,7.75-4.65,15.45-12.1,17.37-5.62-1.65-9.79-6.46-11.8-11.81-.37-3.07-.8-6.9,2.15-8.89Z"/>
          <path d="M631.27,411.27c-1.54-3.78.57-9.07,4.9-9.64,2.72.49,5.13,1.97,7.21,3.74,1.31-.97,2.67-1.87,4.02-2.78,1.7-.1,3.42-.13,5.14-.1,3.19,2.91,3.43,7.7,1.62,11.42-2.16,4.44-5.98,8.7-11.12,9.35-5.83-1.3-9.89-6.59-11.77-11.99Z"/>
          <path d="M684.94,404.78c1.28-1.13,2.42-2.83,4.23-3.11,2.86.15,5.25,1.97,7.52,3.56,2.56-1.91,5.66-3.65,8.96-2.55,2.33,1.81,3.87,4.94,2.99,7.9-1.52,5.81-5.84,11.5-12,12.69-4.15-.54-7.2-3.83-9.58-7-2.22-3.34-4.01-7.61-2.12-11.49Z"/>
          <path d="M711.27,411.27c-1.5-3.68.43-8.63,4.46-9.61,2.91.18,5.45,1.9,7.65,3.71,1.31-.97,2.67-1.87,4.02-2.78,1.7-.1,3.42-.13,5.14-.1,3.19,2.91,3.44,7.7,1.62,11.42-2.16,4.44-5.98,8.68-11.11,9.36-5.83-1.3-9.9-6.59-11.78-12Z"/>
          <path d="M740.14,402.77c3.37-2.71,7.19.74,10.11,2.5,2.45-2.19,5.82-3.78,9.11-2.43.98.96,1.71,2.14,2.54,3.25,1.09,7.76-4.65,15.46-12.1,17.38-5.62-1.65-9.78-6.46-11.8-11.8-.38-3.07-.81-6.9,2.14-8.9Z"/>
          <path d="M151.86,417.54c.12-5.89,3.79-12.77,10.3-13.16,5.7.08,10.59,3.58,14.82,7.07,4.28-3.3,9.2-6.99,14.95-6.22,4.17.53,6.93,4.34,8.26,8.04,2.14,6.72-.51,13.86-4.06,19.59-4.29,6.5-10.4,12.57-18.28,14.21-5.19.48-9.73-2.9-13.49-6.07-6.57-6.1-12.09-14.25-12.5-23.46Z"/>
          <path d="M374.53,404.47c6.21-.72,11.16,3.81,16.07,6.75,4.41-3.34,9.59-7.1,15.47-5.86,6.54,2.04,9.2,10,7.91,16.23-1.99,10.17-9.06,19.23-18.2,24-3.97,2.2-8.76,1.86-12.54-.56-9.28-5.72-16.6-15.4-18.09-26.35-.22-5.91,2.97-13.1,9.38-14.21Z"/>
          <path d="M448.02,408.78c2.18-3.5,6.78-5.31,10.73-3.97,4.47,1.01,8.12,3.93,11.7,6.62,4.09-3.33,8.94-6.79,14.5-6.24,3.86.33,6.64,3.62,8.13,6.94,2.64,6.52.45,13.82-2.95,19.63-4.04,6.52-9.79,12.62-17.32,14.92-4.18,1.45-8.46-.77-11.84-3.1-7.6-5.57-13.7-13.72-15.53-23.09-.93-4.02.34-8.33,2.58-11.71Z"/>
          <path d="M126,429.58c1.66-.71,3.43-1.05,5.24-1.08,1.82,1.08,3.62,2.21,5.52,3.14,2.88-1.1,6.15-4.59,9.2-2.01,2.12,1.5,3.24,4.45,2.82,7.01-1.21,5.5-4.89,10.62-10.15,12.85-1.68.28-3.62.51-5.12-.49-5.11-2.96-8.82-8.35-9.55-14.23.57-1.77,1.32-3.48,2.04-5.19Z"/>
          <path d="M341.23,428.47c3.41-.33,6.34,1.49,8.93,3.47,1.03-.73,2.07-1.46,3.11-2.2,1.62-.35,3.39-1.79,4.99-.64,4.98,2.15,4.34,8.99,1.85,12.85-2.52,4.15-6.89,8.91-12.27,7.53-6.38-3.05-11.24-10.07-10.02-17.33,1.11-1.26,2.25-2.48,3.41-3.68Z"/>
          <path d="M501.23,428.47c3.4-.33,6.34,1.49,8.92,3.47,1.04-.73,2.08-1.47,3.13-2.2,1.61-.35,3.36-1.79,4.97-.65,4.99,2.14,4.36,9,1.86,12.86-2.52,4.14-6.88,8.92-12.26,7.54-6.39-3.05-11.26-10.08-10.03-17.34,1.11-1.26,2.25-2.48,3.41-3.68Z"/>
          <path d="M525.99,429.58c1.67-.71,3.44-1.05,5.25-1.08,1.82,1.08,3.61,2.22,5.53,3.14,2.9-1.1,6.12-4.59,9.19-2.01,2.12,1.49,3.23,4.46,2.82,7.02-1.21,5.49-4.9,10.61-10.16,12.85-1.68.27-3.62.49-5.11-.5-4.53-2.62-7.95-7.12-9.18-12.22-1.08-2.52.96-4.87,1.66-7.2Z"/>
          <path d="M581.23,428.47c3.41-.33,6.34,1.49,8.93,3.47,1.03-.73,2.07-1.46,3.11-2.2,1.62-.35,3.37-1.8,4.98-.64,4.99,2.13,4.35,8.99,1.86,12.85-2.52,4.15-6.88,8.91-12.26,7.54-6.38-3.06-11.26-10.08-10.03-17.35,1.11-1.25,2.25-2.47,3.41-3.67Z"/>
          <path d="M605.99,429.58c1.66-.71,3.44-1.05,5.25-1.09,1.81,1.09,3.61,2.22,5.52,3.16,2.29-1.07,4.41-2.67,6.95-3.1,3.79.9,5.97,5.32,4.87,8.95-1.41,5.15-4.96,9.88-9.95,11.99-1.71.29-3.66.51-5.16-.51-4.98-2.87-8.47-8.02-9.5-13.65.2-2.03,1.34-3.85,2.02-5.75Z"/>
          <path d="M634.23,428.54c1.3.04,2.61.07,3.94.12.56.3,1.67.89,2.23,1.19.99.69,1.99,1.39,2.99,2.1,2.63-1.57,6.47-5.07,9.3-2.06.74.64,1.46,1.3,2.17,2,1.86,6.73-2.43,13.43-8.03,16.86-2.29,1.47-5.51,1.31-7.65-.36-4.19-3-7.73-7.51-8.37-12.73-.42-2.86,1.57-5.22,3.42-7.12Z"/>
          <path d="M741.23,428.47c3.4-.33,6.34,1.49,8.93,3.47,1.03-.73,2.07-1.46,3.11-2.2,1.61-.35,3.38-1.79,4.99-.64,4.98,2.15,4.34,8.99,1.85,12.85-2.52,4.15-6.89,8.93-12.27,7.53-6.38-3.06-11.24-10.07-10.02-17.34,1.11-1.25,2.25-2.47,3.41-3.67Z"/>
          <path d="M285.1,444.64c.16-5.48,2.97-11.82,8.67-13.36,6.36-1.08,11.87,3.13,16.59,6.79,3.93-3.07,8.32-6.21,13.51-6.34,4.58-.02,8.15,3.9,9.54,7.97,2.24,6.71-.3,13.92-3.86,19.68-4.08,6.31-9.86,12.04-17.25,14.15-4.33,1.25-8.53-1.35-11.95-3.7-7.91-6.11-14.28-15.04-15.25-25.19Z"/>
          <path d="M127.27,455.48c3.58-.7,6.87.82,9.5,3.16,2.4-1.95,5.21-3.47,8.41-3.23,1.98,1.86,3.98,4.25,3.67,7.17-.82,5.83-4.88,11.18-10.25,13.58-2.41,1.32-4.85-.36-6.84-1.63-3.11-1.99-4.96-5.3-6.76-8.41-.87-2.69-1.3-5.42-.02-8.06.77-.86,1.53-1.72,2.29-2.58Z"/>
          <path d="M230.98,463.68c-1.05-3.66,1.58-9.05,5.91-8.32,2.57.07,4.53,1.89,6.55,3.24,1.62-1.08,3.27-2.1,4.93-3.11,2.25-.06,5.05.26,5.96,2.7,2.69,5.36-.7,11.54-4.73,15.21-2.06,1.69-4.69,3.68-7.5,3.08-5.52-2.08-9.55-7.21-11.12-12.8Z"/>
          <path d="M257.82,458.97c1.14-1.37,1.93-3.59,4.04-3.55,3.18-.66,5.81,1.46,8.23,3.18,2.43-1.89,5.24-3.42,8.42-3.14,1.17,1.26,2.3,2.57,3.39,3.91.87,5.92-2.25,11.72-6.99,15.12-1.85,1.1-3.89,2.63-6.18,2.01-5.16-1.95-8.65-6.65-10.86-11.52-.03-2.01-.04-4.01-.05-6.01Z"/>
          <path d="M367.27,455.48c3.58-.71,6.87.82,9.5,3.16,2.4-1.94,5.19-3.46,8.39-3.23,2,1.86,4.01,4.26,3.69,7.2-.7,5.25-4.11,9.87-8.49,12.7-1.76.99-4.03,1.99-5.93.75-4.43-1.83-7.26-5.87-9.43-9.94-.88-2.69-1.29-5.42-.02-8.06.76-.86,1.53-1.72,2.29-2.58Z"/>
          <path d="M417.8,458.98c1.16-1.37,1.94-3.61,4.07-3.57,3.18-.65,5.81,1.48,8.23,3.19,2.42-1.9,5.23-3.41,8.41-3.14,1.17,1.26,2.3,2.57,3.39,3.92.86,5.9-2.25,11.7-6.97,15.1-1.96,1.19-4.27,2.87-6.65,1.85-6.47-3-11.68-9.96-10.48-17.35Z"/>
          <path d="M470.98,463.68c-1.05-3.67,1.59-9.06,5.92-8.32,2.56.08,4.52,1.89,6.54,3.24,1.61-1.08,3.27-2.1,4.93-3.11,1.97.05,4.43.03,5.56,2,3.16,4.88.36,11.11-3.28,14.89-2.23,2.18-5.22,4.67-8.53,4.11-5.53-2.07-9.57-7.22-11.14-12.81Z"/>
          <path d="M527.25,455.48c3.59-.7,6.89.81,9.52,3.16,2.41-1.95,5.21-3.47,8.42-3.23,1.98,1.89,4,4.29,3.66,7.23-.71,5.23-4.11,9.84-8.49,12.67-1.75.98-4.02,1.99-5.91.76-4.42-1.83-7.29-5.84-9.42-9.93-.32-1.53-.74-3.03-1.18-4.52.44-1.19.85-2.39,1.21-3.6.73-.85,1.46-1.7,2.19-2.54Z"/>
          <path d="M550.98,463.68c-1.06-3.68,1.6-9.07,5.95-8.32,2.54.09,4.5,1.9,6.51,3.24,1.61-1.08,3.27-2.1,4.93-3.11,1.97.05,4.43.03,5.55,1.99,3.17,4.89.37,11.11-3.27,14.89-2.22,2.19-5.22,4.68-8.53,4.12-5.53-2.07-9.58-7.22-11.14-12.81Z"/>
          <path d="M630.98,463.68c-1.07-3.69,1.63-9.12,6-8.31,2.53.1,4.46,1.9,6.46,3.23,1.61-1.08,3.27-2.1,4.94-3.11,1.96.06,4.41.03,5.54,1.98,3.18,4.9.37,11.14-3.29,14.92-2.21,2.18-5.22,4.66-8.52,4.1-5.52-2.08-9.56-7.22-11.13-12.81Z"/>
          <path d="M687.25,455.47c3.59-.7,6.89.82,9.52,3.17,2.4-1.95,5.2-3.47,8.41-3.23,1.99,1.87,4.01,4.28,3.67,7.23-.86,5.81-4.9,11.12-10.24,13.52-2.44,1.34-4.89-.38-6.89-1.66-3.08-1.99-4.94-5.26-6.69-8.36-.32-1.53-.74-3.03-1.18-4.51.44-1.19.85-2.4,1.21-3.61.72-.85,1.46-1.7,2.19-2.55Z"/>
          <path d="M710.98,463.67c-1.05-3.67,1.6-9.06,5.94-8.31,2.55.08,4.5,1.89,6.52,3.24,1.61-1.08,3.27-2.1,4.93-3.11,1.97.05,4.44.04,5.56,2.01,3.16,4.89.35,11.11-3.3,14.9-2.22,2.17-5.2,4.63-8.5,4.1-5.53-2.07-9.59-7.23-11.15-12.83Z"/>
          <path d="M178.75,473.46c-1-6.1,1.93-13.56,8.22-15.46,6.38-1.17,11.97,3.03,16.69,6.75,4.13-3.19,8.83-6.54,14.31-6.29,4.73.49,8.06,4.75,9.17,9.09.88,4.82.2,9.91-1.99,14.3-3.62,7.59-9.6,14.38-17.44,17.72-4.27,1.72-9.11.53-12.7-2.15-8-5.65-14.6-14.13-16.26-23.96Z"/>
          <path d="M100.15,482.77c3.36-2.72,7.18.73,10.1,2.51,2.45-2.2,5.82-3.79,9.1-2.45.99.96,1.73,2.15,2.55,3.26,1.1,7.76-4.65,15.46-12.1,17.38-5.61-1.65-9.78-6.46-11.8-11.81-.37-3.07-.8-6.9,2.15-8.89Z"/>
          <path d="M151.27,491.29c-1.54-3.77.54-8.98,4.81-9.68,2.75.47,5.2,1.97,7.3,3.76,1.32-.97,2.67-1.87,4.02-2.78,1.71-.1,3.42-.13,5.14-.1,3.23,2.94,3.44,7.8,1.57,11.55-2.19,4.35-5.97,8.61-11.07,9.21-5.82-1.26-9.88-6.59-11.77-11.96Z"/>
          <path d="M364.94,484.78c1.3-1.14,2.45-2.88,4.26-3.11,2.85.17,5.23,1.98,7.49,3.56,2.56-1.91,5.67-3.65,8.96-2.55,2.33,1.82,3.87,4.94,2.99,7.9-1.52,5.81-5.85,11.5-12.01,12.7-4.14-.57-7.19-3.84-9.57-7.02-2.22-3.33-4.01-7.6-2.12-11.48Z"/>
          <path d="M420.14,482.77c3.37-2.71,7.19.73,10.11,2.5,2.45-2.19,5.86-3.82,9.14-2.4.97.95,1.69,2.12,2.51,3.22,1.1,7.76-4.65,15.46-12.1,17.38-5.62-1.65-9.78-6.46-11.8-11.8-.37-3.07-.81-6.9,2.14-8.9Z"/>
          <path d="M473.79,482.54c3.3-2.17,6.98.84,9.6,2.82,1.31-.96,2.66-1.87,4.02-2.78,1.7-.09,3.41-.12,5.13-.09,3.21,2.92,3.44,7.74,1.6,11.47-2.17,4.41-5.98,8.64-11.1,9.31-5.82-1.31-9.89-6.59-11.77-11.98-1.2-3.01-.2-6.94,2.52-8.75Z"/>
          <path d="M631.27,491.27c-1.55-3.77.56-9.05,4.88-9.64,2.73.48,5.14,1.97,7.24,3.73,1.31-.96,2.66-1.87,4.01-2.77,1.7-.1,3.42-.13,5.14-.1,3.19,2.9,3.43,7.7,1.62,11.42-2.16,4.44-5.98,8.68-11.11,9.36-5.83-1.3-9.9-6.59-11.78-12Z"/>
          <path d="M740.15,482.77c3.35-2.72,7.19.75,10.11,2.51,2.45-2.2,5.86-3.84,9.14-2.41.97.96,1.68,2.12,2.5,3.22,1.1,7.76-4.65,15.46-12.1,17.38-5.61-1.65-9.78-6.46-11.8-11.8-.38-3.07-.8-6.91,2.15-8.9Z"/>
          <path d="M582.15,487.78c2.27-2.82,6.3-4.11,9.78-3,4.53.94,8.21,3.92,11.82,6.65,4.03-3.2,8.65-6.63,14.08-6.27,2.95.07,5.48,2.01,7.08,4.37,3.52,4.63,3.04,11.1,1.33,16.35-3.41,8.78-9.99,16.86-18.88,20.4-5.11,2.36-10.53-.66-14.53-3.78-6.47-5.34-11.94-12.46-13.77-20.77-1.24-4.8-.17-10.18,3.09-13.95Z"/>
          <path d="M181.23,508.47c3.41-.33,6.34,1.49,8.92,3.47,1.05-.73,2.09-1.47,3.12-2.2,1.77-.5,3.74-1.86,5.44-.41,4.55,2.41,3.77,8.87,1.4,12.62-2.51,4.13-6.88,8.92-12.26,7.54-6.39-3.06-11.25-10.08-10.03-17.35,1.11-1.25,2.25-2.47,3.41-3.67Z"/>
          <path d="M234.23,508.54c1.31.04,2.62.07,3.94.13.56.29,1.67.88,2.23,1.18,1,.69,1.99,1.39,2.99,2.1,2.02-1.44,4.17-2.76,6.61-3.35,2.06.06,3.37,2.08,4.86,3.28,1.86,6.73-2.42,13.43-8.01,16.87-2.3,1.48-5.53,1.31-7.68-.36-4.18-3.01-7.72-7.5-8.36-12.72-.42-2.88,1.57-5.22,3.42-7.13Z"/>
          <path d="M261.23,508.47c3.41-.33,6.34,1.49,8.93,3.47,1.03-.73,2.08-1.46,3.11-2.2,1.63-.36,3.39-1.8,5-.64,4.97,2.15,4.33,9,1.83,12.86-2.51,4.14-6.88,8.91-12.26,7.52-6.38-3.06-11.24-10.07-10.02-17.34,1.11-1.25,2.25-2.47,3.41-3.67Z"/>
          <path d="M286,509.58c1.66-.71,3.43-1.05,5.24-1.08,1.82,1.07,3.61,2.21,5.52,3.15,2.9-1.1,6.14-4.61,9.2-2.02,2.12,1.48,3.23,4.45,2.82,7-1.21,5.5-4.89,10.62-10.15,12.86-1.69.29-3.65.5-5.16-.51-4.5-2.62-7.91-7.11-9.13-12.18-1.09-2.53.95-4.89,1.66-7.22Z"/>
          <path d="M394.23,508.54c1.3.04,2.62.07,3.94.12.55.3,1.67.89,2.23,1.19.99.69,1.99,1.39,2.99,2.1,2.63-1.57,6.48-5.07,9.31-2.05.74.63,1.46,1.29,2.16,1.98,1.86,6.73-2.42,13.43-8.01,16.86-2.29,1.48-5.52,1.33-7.67-.34-4.19-3.01-7.74-7.53-8.38-12.77-.4-2.86,1.59-5.18,3.43-7.09Z"/>
          <path d="M446,509.58c1.66-.71,3.43-1.05,5.24-1.09,1.82,1.08,3.61,2.22,5.52,3.16,2.26-1.09,4.38-2.57,6.86-3.12,3.82.86,6.06,5.27,4.97,8.93-1.4,5.15-4.95,9.9-9.94,12.03-1.72.3-3.7.5-5.21-.52-5.07-2.97-8.76-8.34-9.48-14.19.56-1.78,1.32-3.49,2.04-5.2Z"/>
          <path d="M525.99,509.58c1.67-.71,3.44-1.05,5.26-1.09,1.79,1.07,3.57,2.2,5.44,3.16,2.28-1.07,4.41-2.52,6.89-3.13,4.48.97,6.49,6.51,4.53,10.44-2.02,5.36-6.83,11.57-13.23,10.64-5.77-2.42-9.77-8.19-10.9-14.26.17-2.04,1.34-3.86,2.01-5.76Z"/>
          <path d="M554.23,508.54c1.3.04,2.62.07,3.94.12.56.3,1.67.89,2.23,1.19.99.69,1.99,1.39,2.99,2.1,2.63-1.57,6.47-5.08,9.31-2.06.73.64,1.46,1.3,2.16,2,1.85,6.72-2.43,13.42-8.01,16.86-2.29,1.47-5.53,1.32-7.67-.35-4.19-3.01-7.74-7.52-8.37-12.75-.42-2.86,1.57-5.21,3.42-7.11Z"/>
          <path d="M634.4,508.58c1.24.01,2.5.03,3.76.07l2.24,1.2c.99.69,1.99,1.39,2.99,2.1,2.63-1.56,6.48-5.07,9.3-2.06.74.64,1.46,1.3,2.17,1.99,1.97,7.27-3.1,14.61-9.52,17.62-4.23,1.29-7.8-1.99-10.34-4.93-3.17-3.65-5.62-8.98-3.11-13.63.84-.79,1.67-1.58,2.51-2.36Z"/>
          <path d="M661.23,508.47c3.4-.33,6.33,1.49,8.92,3.47l3.15-2.22c1.6-.33,3.35-1.77,4.95-.63,4.99,2.15,4.36,9.01,1.85,12.87-2.52,4.15-6.88,8.91-12.26,7.52-6.38-3.06-11.24-10.07-10.02-17.33,1.11-1.26,2.25-2.48,3.41-3.68Z"/>
          <path d="M685.99,509.58c1.67-.71,3.44-1.05,5.26-1.09,1.79,1.08,3.57,2.2,5.45,3.16,2.94-1.07,6.18-4.61,9.26-2.02,2.12,1.48,3.23,4.45,2.82,7.01-1.21,5.5-4.89,10.62-10.15,12.85-1.39.29-2.86.33-4.23-.02-5.59-2.78-9.64-8.48-10.44-14.66.54-1.8,1.32-3.51,2.03-5.23Z"/>
          <path d="M714.4,508.58c1.24.01,2.49.03,3.75.07.57.3,1.69.9,2.25,1.2.99.69,1.99,1.39,2.99,2.1,2.62-1.57,6.47-5.06,9.3-2.06.74.63,1.46,1.3,2.17,1.99,1.97,7.27-3.1,14.6-9.51,17.61-4.24,1.3-7.8-1.97-10.34-4.91-3.17-3.65-5.64-8.99-3.12-13.65.84-.78,1.67-1.57,2.51-2.35Z"/>
          <path d="M741.23,508.47c3.4-.33,6.33,1.49,8.92,3.47,1.05-.74,2.09-1.48,3.15-2.22,1.57-.31,3.3-1.74,4.87-.67,5.06,2.1,4.45,9.02,1.93,12.91-2.51,4.14-6.88,8.91-12.26,7.52-6.38-3.06-11.24-10.07-10.02-17.33,1.11-1.26,2.25-2.48,3.41-3.68Z"/>
          <path d="M367.27,535.48c3.58-.7,6.87.82,9.5,3.16,2.41-1.95,5.21-3.47,8.42-3.23,1.98,1.88,3.99,4.28,3.66,7.22-.85,5.82-4.9,11.14-10.27,13.54-2.41,1.32-4.85-.38-6.83-1.65-3.11-1.99-4.95-5.29-6.75-8.4-.86-2.69-1.3-5.41-.02-8.06.76-.86,1.53-1.73,2.29-2.58Z"/>
          <path d="M470.99,543.68c-1.07-3.68,1.59-9.09,5.95-8.31,2.54.08,4.49,1.9,6.51,3.23,1.61-1.09,3.26-2.1,4.92-3.11,1.98.05,4.45.04,5.57,2.02,3.15,4.89.34,11.11-3.31,14.89-2.22,2.18-5.22,4.65-8.52,4.09-5.52-2.08-9.56-7.22-11.12-12.81Z"/>
          <path d="M497.81,538.98c1.15-1.37,1.93-3.6,4.04-3.56,3.18-.67,5.82,1.47,8.24,3.18,2.43-1.89,5.24-3.42,8.42-3.14,1.17,1.26,2.3,2.57,3.39,3.92,1.15,7.56-4.21,14.41-10.84,17.37-5.51-.29-9.55-4.98-12.04-9.47-1.65-2.48-1.13-5.51-1.21-8.3Z"/>
          <path d="M527.27,535.48c3.58-.71,6.87.82,9.5,3.16,2.41-1.95,5.21-3.47,8.42-3.22,1.97,1.87,3.98,4.25,3.66,7.17-.69,5.25-4.1,9.88-8.49,12.72-1.76.99-4.03,1.99-5.92.75-4.44-1.83-7.27-5.86-9.44-9.94-.88-2.69-1.29-5.42-.02-8.06.76-.86,1.53-1.73,2.29-2.58Z"/>
          <path d="M630.98,543.68c-1.04-3.67,1.57-9.03,5.9-8.32,2.56.06,4.53,1.9,6.57,3.24,1.61-1.09,3.26-2.1,4.93-3.11,1.96.05,4.43.04,5.55,2.01,3.15,4.88.36,11.09-3.27,14.86-2.23,2.2-5.25,4.71-8.57,4.12-5.51-2.08-9.55-7.22-11.11-12.8Z"/>
          <path d="M687.27,535.48c3.58-.7,6.87.82,9.5,3.16,2.4-1.95,5.2-3.47,8.41-3.23,2.29,2.06,4.4,4.99,3.52,8.25-1.5,6.22-6.43,12.38-13.11,13.14-4.76-2.15-8.34-6.03-10.59-10.68-.87-2.69-1.3-5.42-.02-8.06.76-.86,1.52-1.73,2.29-2.58Z"/>
          <path d="M737.81,538.98c1.14-1.34,1.89-3.57,3.98-3.55,3.2-.7,5.87,1.44,8.3,3.17,2.43-1.89,5.24-3.41,8.42-3.14,1.16,1.26,2.3,2.57,3.39,3.92.86,5.91-2.25,11.71-6.98,15.1-1.99,1.22-4.39,2.93-6.79,1.79-6.39-3.05-11.53-9.95-10.32-17.29Z"/>
          <path d="M418.76,553.52c-1.03-6.12,1.9-13.62,8.22-15.52,6.37-1.17,11.96,3.04,16.68,6.75,3.45-2.61,7.05-5.33,11.42-6.09,3.67-.9,7.63.88,9.71,3.97,3.47,4.47,3.17,10.67,1.71,15.85-3.05,8.63-9.24,16.34-17.46,20.52-4.27,2.25-9.62,1.61-13.46-1.22-8.29-5.59-15.08-14.25-16.82-24.26Z"/>
          <path d="M311.88,551.57c-.11-5.44,2.57-11.52,7.98-13.46,6.51-1.51,12.36,2.85,17.16,6.67,3.96-3.18,8.47-6.29,13.75-6.36,6.07.34,9.87,6.49,10.19,12.08.22,7.24-3.18,14.12-7.69,19.59-3.84,4.47-8.56,8.72-14.45,10.08-5.34,1.13-10.18-2.2-14.02-5.48-6.67-5.96-12.16-14-12.92-23.12Z"/>
          <path d="M391.26,571.26c-1.53-3.78.59-9.08,4.93-9.63,2.71.49,5.11,1.97,7.19,3.74,1.32-.97,2.67-1.88,4.03-2.79,1.7-.09,3.41-.12,5.13-.09,3.2,2.91,3.44,7.7,1.62,11.43-2.17,4.43-5.98,8.68-11.12,9.35-5.83-1.31-9.9-6.6-11.78-12.01Z"/>
          <path d="M580.15,562.77c3.36-2.72,7.18.73,10.1,2.51,2.45-2.21,5.85-3.82,9.13-2.43,2.75,2.09,2.89,5.76,2.3,8.88-1.81,5.47-6.15,10.34-11.88,11.74-5.61-1.65-9.78-6.46-11.8-11.8-.37-3.07-.8-6.91,2.15-8.9Z"/>
          <path d="M631.27,571.28c-1.5-3.69.43-8.64,4.46-9.62,2.92.18,5.45,1.9,7.65,3.71,1.31-.97,2.67-1.88,4.03-2.78,1.7-.1,3.41-.13,5.13-.1,3.19,2.91,3.44,7.7,1.62,11.43-2.16,4.43-5.98,8.67-11.11,9.35-5.83-1.3-9.9-6.59-11.78-11.99Z"/>
          <path d="M684.93,564.78c1.47-1.25,2.85-3.5,5.07-3.06,2.51.53,4.64,2.03,6.7,3.51,2.57-2.14,5.7-3.25,9.05-2.75,1.59,2.02,3.59,4.27,3.08,7.07-1.17,6.24-5.72,12.44-12.2,13.73-4.15-.57-7.19-3.84-9.57-7.02-2.22-3.34-4-7.59-2.13-11.48Z"/>
          <path d="M711.27,571.28c-1.55-3.78.56-9.04,4.87-9.66,2.73.49,5.15,1.97,7.25,3.74,1.31-.96,2.66-1.87,4.01-2.77,1.7-.1,3.42-.13,5.14-.1,3.19,2.9,3.43,7.69,1.62,11.42-2.16,4.44-5.98,8.68-11.11,9.36-5.83-1.31-9.9-6.59-11.78-11.99Z"/>
          <path d="M740.14,562.77c3.37-2.71,7.19.74,10.11,2.51,2.44-2.2,5.8-3.78,9.09-2.46,1,.96,1.73,2.15,2.56,3.27,1.09,7.76-4.65,15.46-12.1,17.38-5.62-1.65-9.79-6.46-11.8-11.81-.37-3.06-.8-6.9,2.14-8.89Z"/>
          <path d="M524.94,564.77c1.15-1.15,2.3-2.33,3.75-3.1,3.05-.08,5.62,1.89,8,3.56,2.56-1.91,5.66-3.65,8.96-2.55,2.31,1.8,3.85,4.88,3.01,7.83-1.51,5.84-5.85,11.57-12.04,12.77-4.14-.57-7.18-3.84-9.56-7.01-2.22-3.35-4.01-7.61-2.12-11.5Z"/>
          <path d="M314.4,588.58c1.25.01,2.5.03,3.76.07l2.24,1.2c.99.69,1.99,1.39,2.99,2.1,2.63-1.57,6.49-5.07,9.31-2.05.74.63,1.46,1.29,2.16,1.98,1.97,7.27-3.1,14.61-9.52,17.62-4.25,1.29-7.82-2.01-10.37-4.96-3.15-3.65-5.58-8.96-3.08-13.61.84-.78,1.68-1.57,2.51-2.35Z"/>
          <path d="M341.23,588.47c3.41-.33,6.34,1.49,8.92,3.47,1.04-.73,2.09-1.47,3.12-2.2,1.62-.35,3.37-1.8,4.98-.65,4.99,2.14,4.36,9,1.86,12.86-2.52,4.15-6.89,8.92-12.27,7.53-6.38-3.06-11.24-10.07-10.02-17.34,1.11-1.25,2.25-2.47,3.41-3.67Z"/>
          <path d="M365.99,589.58c1.67-.71,3.45-1.05,5.26-1.09,1.79,1.07,3.57,2.2,5.44,3.16,2.95-1.06,6.21-4.63,9.3-2.01,2.09,1.5,3.19,4.43,2.79,6.98-1.2,5.5-4.89,10.64-10.16,12.87-1.38.28-2.85.33-4.22-.02-5.59-2.78-9.61-8.46-10.45-14.63.54-1.81,1.33-3.53,2.04-5.26Z"/>
          <path d="M421.23,588.47c3.4-.33,6.34,1.49,8.92,3.47,1.04-.73,2.08-1.47,3.13-2.2,1.6-.35,3.34-1.78,4.94-.66,5.02,2.12,4.39,9.01,1.88,12.88-2.51,4.14-6.88,8.91-12.27,7.52-6.38-3.06-11.23-10.07-10.01-17.34,1.11-1.25,2.25-2.47,3.41-3.67Z"/>
          <path d="M474.23,588.54c1.3.04,2.62.07,3.94.12.56.3,1.67.89,2.23,1.19.99.69,1.99,1.39,2.99,2.1,2.02-1.44,4.17-2.76,6.61-3.35,2.06.06,3.38,2.08,4.86,3.29,1.85,6.72-2.42,13.41-8,16.85-2.3,1.49-5.54,1.33-7.69-.35-4.18-3.01-7.72-7.5-8.36-12.72-.43-2.87,1.57-5.22,3.42-7.13Z"/>
          <path d="M501.23,588.47c3.41-.33,6.34,1.49,8.93,3.47,1.03-.74,2.07-1.47,3.11-2.2,1.62-.35,3.38-1.79,4.98-.65,4.99,2.15,4.36,9,1.86,12.86-2.52,4.15-6.89,8.92-12.28,7.53-6.38-3.06-11.23-10.07-10.01-17.33,1.11-1.26,2.25-2.48,3.41-3.68Z"/>
          <path d="M525.99,589.58c1.67-.71,3.44-1.05,5.25-1.09,1.82,1.08,3.61,2.22,5.52,3.16,2.9-1.11,6.16-4.61,9.21-2.02,2.12,1.5,3.23,4.47,2.81,7.04-1.22,5.48-4.9,10.59-10.15,12.82-1.4.27-2.9.36-4.27-.05-5.47-2.7-9.31-8.2-10.4-14.17.27-2,1.34-3.81,2.03-5.69Z"/>
          <path d="M634.4,588.58c1.24.01,2.49.03,3.76.07l2.24,1.2c.99.69,1.99,1.39,2.99,2.1,2.63-1.57,6.48-5.07,9.31-2.06.73.64,1.45,1.3,2.16,2,1.04,4.18.03,8.7-2.73,12.02-2.6,3.22-6.34,6.88-10.88,5.61-4.93-2.37-8.69-7.04-10.22-12.27-.67-2.15.09-4.33.86-6.32.84-.78,1.67-1.57,2.51-2.35Z"/>
          <path d="M714.22,588.54c1.31.04,2.62.07,3.95.12.56.3,1.67.89,2.23,1.19.99.69,1.99,1.39,2.99,2.1,2.63-1.57,6.47-5.09,9.31-2.06.73.64,1.46,1.3,2.16,2,1.04,4.18.03,8.7-2.72,12.01-2.59,3.22-6.32,6.86-10.85,5.63-5.13-2.46-9.04-7.39-10.4-12.9-.77-3.18,1.17-6,3.33-8.09Z"/>
          <path d="M337.8,618.98c1.16-1.37,1.94-3.61,4.06-3.56,3.18-.66,5.81,1.46,8.23,3.18,2.43-1.89,5.24-3.42,8.42-3.14,1.17,1.26,2.3,2.57,3.39,3.91,1.15,7.57-4.21,14.42-10.84,17.38-5.51-.29-9.55-4.98-12.04-9.47-1.64-2.48-1.12-5.51-1.22-8.3Z"/>
          <path d="M390.98,623.67c-1.06-3.69,1.63-9.1,5.99-8.3,2.53.1,4.47,1.9,6.47,3.23,1.62-1.09,3.27-2.1,4.94-3.11,1.97.05,4.44.04,5.56,2.01,3.15,4.89.34,11.1-3.3,14.88-2.21,2.18-5.2,4.65-8.51,4.12-5.53-2.07-9.59-7.23-11.15-12.83Z"/>
          <path d="M473.97,615.7c3.49-1.33,6.82.83,9.47,2.9,1.61-1.08,3.27-2.1,4.94-3.11,1.97.05,4.44.04,5.56,2.01,3.15,4.89.34,11.11-3.3,14.89-2.22,2.18-5.2,4.63-8.51,4.11-5.53-2.08-9.58-7.22-11.15-12.82-.84-3,.6-6.15,2.99-7.98Z"/>
          <path d="M577.82,618.97c1.14-1.37,1.92-3.59,4.03-3.55,3.18-.67,5.82,1.46,8.24,3.17,2.43-1.88,5.24-3.41,8.42-3.13,1.17,1.26,2.3,2.56,3.39,3.91,1.15,7.56-4.21,14.42-10.84,17.38-6.46-.43-10.68-6.4-13.19-11.77-.03-2.01-.04-4.01-.05-6.01Z"/>
          <path d="M607.27,615.47c3.58-.7,6.87.83,9.5,3.17,2.4-1.95,5.2-3.47,8.41-3.23,2.01,1.89,4.03,4.33,3.66,7.29-.87,5.79-4.9,11.07-10.24,13.46-2.4,1.32-4.82-.35-6.8-1.6-3.14-2-5-5.32-6.8-8.44-.88-2.69-1.3-5.42-.02-8.06.76-.87,1.52-1.73,2.29-2.59Z"/>
          <path d="M737.81,618.98c1.15-1.38,1.94-3.62,4.08-3.57,3.17-.64,5.79,1.48,8.2,3.18,2.43-1.88,5.24-3.41,8.42-3.13,1.16,1.26,2.3,2.56,3.39,3.91,1.06,7.37-4.01,14.68-10.88,17.13-1.71.53-3.31-.35-4.72-1.17-5.4-3.5-9.62-9.67-8.49-16.35Z"/>
          <path d="M525.12,631.65c-.04-5.63,2.92-12.19,8.77-13.71,6.29-.97,11.79,3.11,16.43,6.81,4.19-3.22,9.02-6.68,14.58-6.24,5.75.78,9.11,6.78,9.35,12.15.2,7.48-3.45,14.57-8.25,20.11-3.8,4.18-8.35,8.29-14.06,9.43-5.13,1.02-9.72-2.13-13.49-5.2-6.88-5.95-12.32-14.15-13.33-23.35Z"/>
          <path d="M631.88,631.61c-.14-5.45,2.56-11.55,7.98-13.5,6.51-1.51,12.35,2.85,17.16,6.67,3.98-3.19,8.52-6.33,13.82-6.36,6.43.45,10.23,7.24,10.16,13.14-.27,8.04-4.52,15.46-10.06,21.09-4.45,4.44-10.54,8.98-17.21,7.38-4.27-1.29-7.86-4.21-11-7.27-5.63-5.71-10.2-13-10.85-21.15Z"/>
          <path d="M420.15,642.77c3.35-2.72,7.18.73,10.1,2.51,2.45-2.21,5.84-3.81,9.12-2.43,2.76,2.08,2.91,5.77,2.31,8.89-1.82,5.47-6.15,10.33-11.88,11.73-5.62-1.65-9.78-6.46-11.8-11.8-.37-3.07-.81-6.91,2.15-8.9Z"/>
          <path d="M580.14,642.77c3.36-2.73,7.19.74,10.11,2.5,2.45-2.19,5.82-3.78,9.1-2.44,2.78,2.08,2.92,5.77,2.33,8.9-1.81,5.47-6.15,10.34-11.88,11.74-5.61-1.65-9.78-6.45-11.8-11.8-.38-3.07-.8-6.9,2.14-8.9Z"/>
          <path d="M740.14,642.78c3.37-2.72,7.19.72,10.11,2.49,2.45-2.19,5.83-3.8,9.11-2.43.99.96,1.71,2.14,2.54,3.25,1.1,7.76-4.65,15.46-12.1,17.38-5.62-1.65-9.79-6.46-11.8-11.81-.37-3.07-.8-6.89,2.14-8.88Z"/>
          <path d="M364.94,644.77c1.15-1.15,2.31-2.34,3.77-3.11,3.04-.06,5.61,1.91,7.98,3.57,2.56-1.91,5.68-3.65,8.97-2.54,2.29,1.78,3.82,4.84,3.02,7.78-1.51,5.85-5.85,11.61-12.05,12.81-4.15-.57-7.19-3.84-9.57-7.02-2.23-3.34-4-7.6-2.12-11.49Z"/>
          <path d="M694.54,644.48c6.22-.75,11.16,3.83,16.07,6.73,3.92-2.88,8.15-6.17,13.27-6.08,4.5-.18,7.92,3.64,9.4,7.53,2.33,6.42.15,13.45-3.16,19.11-4.04,6.52-9.79,12.62-17.32,14.91-4.76,1.57-9.49-1.3-13.16-4.08-7.65-6.15-13.81-15.04-14.55-25.04.33-5.57,3.37-12.1,9.45-13.08Z"/>
          <path d="M314.01,649.83c1.76-3.16,5.04-5.57,8.77-5.47,5.47.43,10.11,3.69,14.2,7.09,4.27-3.29,9.17-6.97,14.9-6.22,4.13.49,6.87,4.2,8.24,7.83,2.19,6.49-.22,13.45-3.55,19.09-4.11,6.53-9.98,12.57-17.61,14.68-3.21.98-6.5-.39-9.28-1.93-6.89-4.13-12.21-10.6-15.58-17.84-2.41-5.37-3.28-11.97-.09-17.23Z"/>
          <path d="M421.23,668.47c3.41-.33,6.34,1.49,8.93,3.47,1.03-.74,2.08-1.47,3.11-2.2,1.61-.35,3.36-1.78,4.96-.66,5,2.14,4.38,9.01,1.87,12.88-2.51,4.14-6.87,8.9-12.25,7.53-6.39-3.06-11.26-10.08-10.03-17.35,1.11-1.25,2.25-2.47,3.41-3.67Z"/>
          <path d="M554.4,668.58c1.25.01,2.5.03,3.76.07l2.24,1.2c.99.69,1.99,1.39,2.99,2.1,2.63-1.57,6.48-5.09,9.32-2.05.73.63,1.45,1.29,2.15,1.99,1.04,4.18.03,8.71-2.73,12.02-2.59,3.23-6.33,6.86-10.86,5.61-4.95-2.37-8.72-7.05-10.24-12.29-.66-2.15.09-4.31.86-6.3.84-.78,1.68-1.57,2.51-2.35Z"/>
          <path d="M581.2,668.46c3.41-.32,6.36,1.49,8.95,3.48,1.04-.74,2.08-1.47,3.13-2.2,1.61-.36,3.36-1.8,4.96-.65,5,2.14,4.37,9,1.87,12.86-2.52,4.14-6.89,8.92-12.27,7.53-6.28-3.06-11.54-10.14-9.82-17.4.91-1.33,2.07-2.46,3.18-3.62Z"/>
          <path d="M634.4,668.58c1.25.01,2.5.03,3.76.07l2.24,1.2c.99.69,1.99,1.39,2.99,2.1,2.63-1.58,6.49-5.06,9.31-2.05.73.63,1.45,1.29,2.16,1.98,1.97,7.27-3.1,14.61-9.53,17.62-3.72,1.16-7.04-1.35-9.43-3.92-3.61-3.77-6.73-9.52-4.01-14.65.84-.78,1.67-1.57,2.51-2.35Z"/>
          <path d="M365.1,684.55c.2-5.45,3-11.75,8.69-13.27,6.36-1.06,11.85,3.15,16.6,6.79,3.9-3.09,8.3-6.21,13.47-6.34,4.61-.02,8.2,3.94,9.57,8.05,2.18,6.61-.29,13.72-3.77,19.42-4.27,6.65-10.46,12.79-18.4,14.57-4.09.56-7.88-1.82-11.08-4.07-7.85-6.12-14.16-15.04-15.08-25.15Z"/>
          <path d="M470.99,703.69c-1.07-3.69,1.61-9.11,5.97-8.32,2.54.09,4.48,1.9,6.48,3.23,1.62-1.09,3.27-2.1,4.94-3.11,1.96.05,4.42.03,5.54,1.99,3.18,4.9.36,11.13-3.29,14.92-2.22,2.17-5.22,4.65-8.52,4.09-5.52-2.08-9.56-7.22-11.12-12.8Z"/>
          <path d="M577.82,698.97c1.14-1.36,1.91-3.58,4.02-3.55,3.18-.67,5.83,1.46,8.25,3.18,2.43-1.9,5.24-3.41,8.42-3.14,1.16,1.26,2.3,2.56,3.39,3.91.87,5.91-2.25,11.71-6.97,15.11-1.93,1.16-4.18,2.81-6.54,1.9-4.98-2.05-8.35-6.63-10.52-11.39-.03-2.01-.04-4.02-.05-6.02Z"/>
          <path d="M630.98,703.68c-1.06-3.69,1.62-9.1,5.98-8.31,2.53.08,4.47,1.9,6.48,3.23,1.61-1.09,3.27-2.1,4.93-3.11,2.23-.05,5.02.24,5.94,2.66,2.73,5.36-.66,11.56-4.7,15.24-2.06,1.69-4.71,3.7-7.53,3.09-5.51-2.09-9.54-7.22-11.1-12.8Z"/>
          <path d="M687.27,695.47c3.58-.7,6.87.83,9.5,3.17,2.4-1.95,5.2-3.47,8.41-3.23,1.98,1.87,3.99,4.26,3.67,7.2-.7,5.25-4.11,9.87-8.5,12.71-1.75.97-4.01,1.98-5.9.75-4.43-1.83-7.27-5.87-9.45-9.94-.86-2.7-1.31-5.43-.02-8.07.76-.87,1.52-1.73,2.29-2.59Z"/>
          <path d="M418.76,713.51c-1.02-6.1,1.88-13.54,8.15-15.5,6.39-1.22,12.02,3.01,16.75,6.74,3.44-2.6,7.04-5.33,11.41-6.08,3.66-.92,7.64.87,9.72,3.96,3.4,4.36,3.16,10.39,1.84,15.48-3.08,9.01-9.59,17.11-18.29,21.21-4.38,2.04-9.56.94-13.31-1.89-8.01-5.64-14.59-14.11-16.27-23.92Z"/>
          <path d="M313.81,722.53c3.29-2.16,6.97.86,9.58,2.83,1.31-.96,2.66-1.87,4.02-2.77,1.7-.1,3.41-.13,5.13-.1,3.23,2.94,3.44,7.79,1.57,11.54-2.19,4.38-5.98,8.59-11.09,9.24-5.81-1.33-9.87-6.6-11.75-12-1.2-3.01-.19-6.95,2.54-8.74Z"/>
          <path d="M340.15,722.76c3.36-2.71,7.18.75,10.1,2.52,2.44-2.2,5.81-3.78,9.09-2.46,1,.96,1.73,2.14,2.56,3.27,1.1,7.76-4.65,15.46-12.1,17.38-5.61-1.65-9.78-6.45-11.8-11.8-.38-3.07-.8-6.91,2.15-8.91Z"/>
          <path d="M364.94,724.78c1.46-1.25,2.84-3.5,5.05-3.06,2.52.53,4.65,2.03,6.7,3.51,2.56-1.91,5.67-3.65,8.96-2.55,2.3,1.79,3.83,4.85,3.03,7.79-1.51,5.85-5.85,11.61-12.05,12.81-4.15-.57-7.19-3.84-9.57-7.01-2.22-3.34-4.01-7.61-2.12-11.49Z"/>
          <path d="M391.27,731.29c-1.5-3.68.42-8.63,4.44-9.63,2.92.17,5.47,1.9,7.67,3.71,1.32-.97,2.67-1.88,4.02-2.78,1.71-.1,3.42-.13,5.14-.1,3.21,2.92,3.44,7.73,1.6,11.47-2.17,4.41-5.97,8.65-11.1,9.31-5.82-1.31-9.89-6.59-11.77-11.98Z"/>
          <path d="M580.14,722.77c3.37-2.71,7.19.73,10.11,2.5,2.44-2.19,5.79-3.77,9.08-2.46,1,.96,1.74,2.16,2.57,3.28,1.09,7.76-4.65,15.46-12.1,17.38-5.61-1.65-9.78-6.45-11.8-11.8-.38-3.07-.81-6.9,2.14-8.9Z"/>
          <path d="M604.94,724.78c1.28-1.14,2.43-2.83,4.22-3.11,2.87.15,5.26,1.97,7.53,3.56,2.56-1.91,5.67-3.65,8.96-2.55,2.32,1.81,3.87,4.93,3,7.89-1.53,5.81-5.85,11.5-12,12.71-4.16-.55-7.21-3.83-9.59-7.01-2.22-3.34-4.01-7.61-2.12-11.49Z"/>
          <path d="M631.27,731.27c-1.55-3.78.57-9.08,4.91-9.64,2.71.49,5.12,1.97,7.21,3.73,1.31-.96,2.66-1.87,4.01-2.77,1.7-.1,3.42-.13,5.14-.1,3.19,2.9,3.43,7.69,1.62,11.42-2.16,4.43-5.98,8.68-11.11,9.36-5.83-1.3-9.9-6.59-11.78-12Z"/>
          <path d="M660.14,722.77c3.37-2.72,7.2.75,10.12,2.51,2.45-2.21,5.83-3.81,9.11-2.43,2.75,2.08,2.91,5.76,2.31,8.88-1.81,5.47-6.15,10.34-11.88,11.74-5.66-1.67-9.89-6.55-11.84-11.98-.32-3.03-.72-6.77,2.18-8.72Z"/>
          <path d="M684.93,724.78c1.3-1.14,2.44-2.85,4.25-3.11,2.86.15,5.25,1.97,7.52,3.56,2.55-1.91,5.66-3.65,8.95-2.55,2.32,1.81,3.87,4.92,3,7.88-1.52,5.82-5.85,11.52-12.02,12.72-4.15-.57-7.2-3.84-9.57-7.02-2.22-3.34-4.01-7.6-2.13-11.48Z"/>
          <path d="M711.27,731.28c-1.55-3.78.57-9.09,4.91-9.65,2.72.49,5.12,1.97,7.2,3.74,1.31-.97,2.67-1.88,4.03-2.79,1.7-.09,3.41-.12,5.13-.09,3.19,2.9,3.43,7.68,1.63,11.41-2.17,4.44-5.99,8.7-11.14,9.37-5.82-1.32-9.88-6.59-11.76-11.99Z"/>
          <path d="M740.14,722.77c3.37-2.72,7.19.73,10.11,2.5,2.45-2.19,5.84-3.8,9.12-2.42.98.95,1.7,2.12,2.53,3.23,1.11,7.76-4.65,15.47-12.1,17.39-5.62-1.65-9.79-6.47-11.8-11.82-.38-3.07-.8-6.89,2.14-8.88Z"/>
        </g>
        <path class="cls-2" d="M128.16,83.02c37.23-.2,74.47-.02,111.71-.08,7.2.04,14.52-.39,21.55,1.46,5.95,1.88,11.32,5.86,14.4,11.36,3.41,5.62,3.82,12.4,3.86,18.81-.03,39.36.03,78.72-.02,118.08.05,7.94-1.79,16.39-7.75,22.05-5.63,5.95-14.08,7.75-21.98,7.71-40.39.01-80.78.08-121.17-.03-8.51.05-17.51-2.83-22.77-9.87-4.78-5.83-5.78-13.58-5.8-20.87-.02-39.04,0-78.07,0-117.11.06-7.1.6-14.7,5.01-20.59,5.04-7.48,14.19-10.95,22.96-10.92ZM124.15,102.82c-3.69,1.17-4.85,5.3-4.66,8.78-.07,39.99.01,79.99-.04,119.98.13,3.18-.25,6.84,2.06,9.39,2.16,2.16,5.45,2.07,8.28,2.19,39.01.02,78.01-.02,117.02.02,3.44-.13,7.16.35,10.33-1.3,3.18-1.86,3.18-6,3.26-9.24v-120.08c-.13-2.83-.05-6.12-2.18-8.29-2.26-2.08-5.49-1.92-8.34-2.02-39.69-.01-79.37,0-119.06-.02-2.23.06-4.51-.02-6.67.59Z"/>
        <path class="cls-2" d="M608.13,83.03c39.9-.22,79.81-.03,119.72-.1,7.62-.02,15.8.79,21.9,5.83,7.35,5.48,10.05,14.97,9.91,23.79.03,40.03.03,80.05,0,120.08.05,7.91-1.77,16.32-7.68,21.99-5.65,6.02-14.18,7.84-22.14,7.79-40.34.01-80.68.07-121.02-.03-9.01.12-18.57-3.24-23.68-11.04-5.77-8.01-4.88-18.38-4.95-27.73,0-36.67-.02-73.35,0-110.03.07-7.03.9-14.52,5.42-20.22,5.1-7.11,13.98-10.34,22.51-10.33ZM604.15,102.82c-3.71,1.18-4.86,5.33-4.66,8.82-.07,39.99.01,79.98-.04,119.97.12,3.17-.24,6.83,2.07,9.37,2.15,2.15,5.44,2.06,8.27,2.18,40.04.01,80.08,0,120.13,0,2.85-.11,6.16-.02,8.37-2.16,2.1-2.24,2-5.54,2.11-8.4-.01-40.01,0-80.03,0-120.04-.13-2.82-.05-6.09-2.15-8.26-2.26-2.11-5.53-1.96-8.39-2.05-38.67-.01-77.33.02-115.99-.02-3.24.07-6.56-.21-9.72.59Z"/>
        <path class="cls-2" d="M142.64,137.52c6.35-7.59,16.31-12.14,26.23-11.6,7.75-.17,15.04,3.35,20.99,8.09,6.26-4.86,13.9-8.49,22-8.09,15.39-.65,29.92,11.51,32.33,26.68,1.51,6.32.03,12.96-2.43,18.84-2.76,6.52-8.33,11.08-13.17,15.99-10.41,10.25-20.72,20.62-31.22,30.78-3.65,4.05-10.6,4.36-14.43.4-12.53-12.19-24.96-24.49-37.38-36.8-4.64-4.45-8.16-10.17-9.51-16.5-2.46-9.6.33-20.2,6.59-27.79Z"/>
        <path class="cls-2" d="M619.13,142.74c5.64-10.65,17.74-17.49,29.79-16.81,7.73-.17,15.01,3.36,20.94,8.08,6.26-4.86,13.9-8.49,22-8.09,15.01-.61,29.33,10.93,32.1,25.66,2.64,10.62-1.5,22.34-9.29,29.82-11.89,11.8-23.8,23.58-35.73,35.34-2.43,2.43-5.38,5-9.07,4.63-3.46.33-6.29-1.96-8.56-4.26-12.37-12.3-24.93-24.42-37.21-36.81-9.54-9.74-11.73-25.67-4.97-37.56Z"/>
        <path class="cls-2" d="M128.11,563.03c39.91-.22,79.83-.03,119.74-.1,7.6-.02,15.75.78,21.86,5.79,7.37,5.48,10.1,14.99,9.95,23.83.03,40.01.03,80.03,0,120.04.09,8.17-1.93,16.87-8.2,22.55-5.89,5.93-14.55,7.37-22.57,7.29-40.02-.03-80.04.06-120.06-.05-8.54.06-17.58-2.81-22.85-9.89-4.77-5.82-5.76-13.56-5.78-20.83-.03-37.69,0-75.38-.02-113.06-.04-5.55-.01-11.15,1.25-16.58,2.21-8.79,9.6-15.98,18.44-17.98,2.71-.56,5.47-.88,8.24-1.01ZM124.12,582.83c-3.68,1.18-4.83,5.32-4.63,8.79-.07,40.01.01,80.02-.04,120.03.12,3.16-.23,6.79,2.07,9.33,2.17,2.16,5.48,2.05,8.32,2.18,40.01,0,80.01,0,120.02,0,2.87-.11,6.17-.01,8.4-2.13,2.36-2.54,2.02-6.28,2.16-9.48-.05-39.69-.01-79.38-.02-119.07-.13-2.81-.07-6.06-2.17-8.2-2.26-2.1-5.52-1.94-8.38-2.03-38.67,0-77.35.02-116.03-.02-3.23.06-6.54-.21-9.7.6Z"/>
        <path class="cls-2" d="M141.83,618.54c6.29-8.21,16.69-13.19,27.05-12.62,7.75-.16,15.04,3.35,20.98,8.09,6.25-4.85,13.87-8.48,21.95-8.09,15.42-.67,29.99,11.51,32.38,26.71,1.51,6.31.03,12.95-2.43,18.82-2.75,6.49-8.3,11.04-13.13,15.94-10.44,10.28-20.76,20.67-31.29,30.85-3.67,4.04-10.64,4.31-14.45.33-12.67-12.35-25.26-24.77-37.8-37.24-6.4-6.13-9.98-14.92-9.98-23.75.33-6.82,2.52-13.61,6.72-19.04Z"/>
      </g>
    </g>
  </g>
</svg>