<?xml version="1.0" encoding="UTF-8"?>
<svg id="Capa_2" xmlns="http://www.w3.org/2000/svg" viewBox="0 0 1126.53 552">
  <defs>
    <style>
      .cls-1 {
        fill: #10b3b1;
      }

      .cls-2 {
        fill: #e0418f;
      }
    </style>
  </defs>
  <g id="Capa_2-2" data-name="Capa_2">
    <g>
      <g>
        <path class="cls-1" d="M17.94,1.1C29.16-.19,40.53-.41,51.78.77c12.73,1.36,24.93,6.17,35.67,13.05,8.44,5.48,14.43,13.84,19.25,22.51,2.88,5,4.98,10.37,7.2,15.67,12.73,30.32,24.08,61.22,37.66,91.19,9.31,20.78,19.32,41.23,29.14,61.77-16.86,5.36-33.14,13.21-46.77,24.62-10.08-17.06-18.73-34.92-27.27-52.8-12.13-24.79-24.58-49.44-37.63-73.77-4.62-8.21-8.56-16.77-13.29-24.93-.5,3.32-1.42,6.61-1.3,9.99.13,17.48-.43,34.99,1.04,52.43,1.11,15.69,3.29,31.28,5.81,46.8,4.33,28.44,9.95,56.67,14.68,85.04.76,4.54-2.83,9.24-7.46,9.54-16.55.73-33.12.65-49.67,1.33-3.83.04-7.6-.81-11.26-1.86-3.04-.9-6.08-2.87-7.1-6.03-1.11-3.52,0-7.2.57-10.71,2.79-15.73,5.93-31.4,9.83-46.9,6.9-29.77,12.84-59.98,13.62-90.61.5-27.17,1.08-54.37-.28-81.52.06-10.13-3.54-20.23-10.09-27.98-1.7-2.07-3.81-3.94-4.68-6.56-1.08-2.97.3-6.48,2.89-8.18,1.67-1.11,3.67-1.54,5.61-1.77h0Z"/>
        <path class="cls-1" d="M176.34,8.82c2.12-3.59,6.54-4.98,10.51-5.06,15.84-.04,31.68,0,47.51-.02,3.61-.07,7.76,1.33,9.27,4.89,1.08,2.95.4,6.25-.97,8.98-9.11,18.51-16.03,38.4-17.57,59.1-1.54,22.2-2.76,44.44-2.77,66.7-.4,17.7-.45,35.41-.89,53.1-9.73,1.1-19.41,2.79-28.93,5.13,1.35-9.41,1.94-18.94,1.8-28.46-.13-27.2.41-54.4-.63-81.59-.39-13.5-1.82-26.98-4.47-40.23-2.27-11.38-6.37-22.35-11.85-32.57-1.69-2.96-2.74-6.79-1-9.97h0Z"/>
        <path class="cls-1" d="M589.08,9.82c24.84-6.09,51-8.69,76.28-3.68,3.55,1.26,7.28,2.21,10.59,4.08,3.23,1.81,5.1,5.5,5.03,9.16-.13,3.39-1.14,6.65-1.72,9.97-3.25,15.85-5.46,31.89-8.37,47.8-.89,5.09-1.96,10.15-2.75,15.26,8.4-7.44,16.83-15.21,27.14-19.95,13.51-6.52,28.97-8.45,43.76-6.24,9.32,1.49,19.06,3.59,26.6,9.63,8.28,6.73,13.04,16.73,16.59,26.57,6.2,16.43,7.33,34.16,8.26,51.53.88,10.18.82,20.4,1.13,30.61-.07,13.36-1.27,26.68-1.08,40.05-27.24-15.6-59.28-20.18-90.26-20.06,1.64-14.21,3.07-28.44,3.82-42.73.86-11.39-.33-22.92-3.28-33.94-1.3-5.18-6.98-8.12-12.04-7.63-2.79.34-5.33,1.84-7.21,3.88-3.77,4.29-6.83,9.22-8.86,14.56-4.27,12.17-5.35,25.21-4.74,38.03.65,9.9-.18,19.8.13,29.71-29.13,3.12-57.89,9.4-85.86,18.06,2.11-20.34,3.45-40.75,4.45-61.17,1.87-31.18,2.08-62.56-2.01-93.58-2.04-14.93-4.11-29.85-5.99-44.81-.45-3.64.13-7.58,2.37-10.58,1.94-2.54,5.01-3.82,8.04-4.52h-.02Z"/>
        <path class="cls-1" d="M451.64,56.77c16.14-1.45,32.35-1.87,48.53-2.17,9.74.15,19.55-.45,29.23.91,6.07.74,11.17,7.93,7.83,13.66-6,11-8.59,23.39-10.88,35.59,11.36.02,22.73-.03,34.1.01,3.54-.01,7.61,1.39,8.9,5.02,1.42,3.92,1.4,9.2-2.13,12.02-3.15,2.33-7.3,2.01-11.01,2.09-10.8-.03-21.59.02-32.39-.03-2.72,33.58-4.4,67.34-2.37,101.01.91,9.92,1.72,20.41,7.17,29.05,1.77,2.98,4.73,5.66,8.38,5.76,3.33.27,6.34-1.4,9.12-2.99,24.81-14.22,51.48-25.58,79.52-31.55,26.78-5.86,54.56-6.26,81.69-2.71,19.38,2.62,38.63,8.24,55.35,18.58,13.05,8.12,24.27,19.58,30.94,33.53,6.51,13.29,8.53,28.69,5.77,43.22-2.2,12.1-7.59,23.51-14.91,33.35-8.05,10.75-18.27,19.67-29.05,27.58-23.65,17.16-52.1,26.81-80.93,30.48-23.03,2.87-46.41,2.97-69.47.45-34.8-3.86-68.9-15.38-98.16-34.75-11.87-7.59-21.9-17.6-32.7-26.56-19.03,19.55-37.35,39.79-57.04,58.67-20.4,19.67-42.38,37.98-67.08,52.02-21.62,12.36-45.41,21.01-70.04,24.86-28.03,4.59-57.21,2.67-84.17-6.43-16.06-5.39-31.34-13.08-45.37-22.59-20.59-14.14-36.78-34.68-45.22-58.23-10.65-29.11-9.12-62.03,2.68-90.55,10-24.24,26.51-45.83,47.6-61.47,20.08-15,44.49-24.13,69.52-25.74,18.26-1.16,37.09.63,54,8,22.36,9.53,41.87,26.47,53.04,48.21,6.87,13.51,10.04,29.07,7.94,44.16-1.51,11.27-5.9,22.13-12.68,31.26-7.88,10.73-18.87,18.99-31.09,24.17-20.91,8.8-44.9,9.58-66.48,2.69,3.26-8.07,8-15.61,9.73-24.24,2.76-12.19.89-25.5-5.81-36.14-4.47-7.22-11.08-13.04-18.7-16.76-12.1-6.07-26.49-7.28-39.49-3.6-11.16,3.06-21.36,9.93-27.85,19.57-9.9,14.37-14.87,31.8-15.57,49.14-.48,15.06,2.72,30.45,10.49,43.47,6.52,11.1,16.42,19.94,27.58,26.22,13.86,8,29.77,11.97,45.68,12.83,12.61.67,25.27-.3,37.75-2.1,29.63-4.32,58.28-15.28,83.25-31.82,38.62-26.58,74.62-56.67,111.42-85.67,1.83-1.46,3.91-2.79,4.97-4.97,1.09-2.13,2.28-4.76,1.01-7.08-8.41-18.85-12.39-39.53-12.57-60.13-.28-7.32.32-14.65.55-21.96-.05-13.7.74-27.38,1.17-41.06.68-19.49,1.2-38.98,2.09-58.46.91-14.8.44-29.71-1.94-44.35-.67-4.03-1.26-8.15-3.06-11.85-1.27-2.91-3.72-5.35-4.05-8.62-.6-4.13,1.46-8.52,5.12-10.57,3.03-1.83,6.64-2.1,10.07-2.44h.02ZM638.15,235.44c-11.06,1.42-21.81,4.64-32.12,8.82-12.54,5.11-24.62,11.34-36.11,18.51-21.74,13.57-41.28,30.36-59.48,48.31-2.42,3.73-2.42,9.05.06,12.78,6.52,11.19,12.75,22.69,21.18,32.6,14.83,17.2,33.99,31.26,56.03,37.48,15.38,4.42,31.77,4.84,47.48,1.99,18.89-3.35,37.4-10.95,51.74-23.93,15.31-13.55,25.12-32.38,30.24-51.98,3.72-13.22,4.26-27.56.09-40.74-5.47-18.07-19.55-33.16-37.06-40.14-13.24-5.6-28.05-5.29-42.06-3.71h.01Z"/>
        <path class="cls-1" d="M267.53,89.32c16.11-12.44,36.62-18.46,56.86-18.23,10.3-.23,20.62,1.28,30.5,4.18,11.41,3.27,22.31,9,30.58,17.62,9.55,9.69,16.44,21.79,20.91,34.59,4.96,13.8,8.01,28.26,9.39,42.85,1.2,12.48.83,25.03,1.4,37.55.42,13.97,1.01,27.93,1.64,41.89-.02,5.91.82,11.78,1.64,17.63.35,4.52,5.25,7.36,4.76,12.12-.51,4.71-5.62,6.46-9.41,7.91-11.81,4.52-24.9,1.86-36.21-2.86-9.52-4.01-17.32-11.91-21.05-21.57-2.67-5.93-4.14-12.29-6.44-18.35-3.25,4.9-5.51,10.4-9.1,15.09-3.43-7.3-7.7-14.21-12.77-20.48,7.1-1.72,10.97-8.67,13.56-14.9,2.54-7.32,2.91-15.17,4.05-22.79-.01-5.63-.52-11.83-4.26-16.36-1.96-2.52-5.42-3.81-8.52-2.91-5.24,1.45-9.09,5.66-12.05,10.01-5.85,9.32-8.2,20.52-8.07,31.43-13.79-11.33-30.03-19.35-46.96-24.78-5.22-1.58-10.43-3.42-15.85-4.12,4.51-8.19,10.21-15.8,17.36-21.88,12.24-10.68,27.81-16.88,43.61-19.97,11.87-2.29,24.42-.15,35.01,5.61.18-1.76.35-3.52.21-5.29-.99-15.12-1.05-30.29-2.1-45.42-.25-3.76-3.03-6.66-5.61-9.12-2.45-2.48-6.39-3.51-9.56-1.8-4.9,2.5-8.98,6.93-10.51,12.27-2.16,7.07-4.89,13.95-7.17,20.98-2.18,6.14-4.49,12.44-8.75,17.48-3.99,4.84-9.59,8.5-15.86,9.41-8.1,1.25-17.1-.25-23.43-5.75-7.74-6.88-13.07-16.67-13.85-27.07-.95-13.39,5.66-26.67,16.02-34.99l.03.02Z"/>
      </g>
      <g>
        <path class="cls-2" d="M1029.14,71.41c15.69-4.45,31.8-7.93,48.15-8.3,11.24-.2,23.1.93,32.88,6.95,6.93,4.18,11.66,11.58,12.84,19.56,2.47,15.43,2.9,31.1,3.37,46.69.69,41.85-1.03,83.7-3.34,125.48.21,7.14-2.69,14.46-8.17,19.14-5.07,4.22-11.34,6.6-17.55,8.59-15.46,4.68-31.62,6.47-47.66,7.9-35.37,2.87-70.9,2.69-106.35,2.23-5.1.06-10.37-1-15.3.77-11.83,3.92-21.03,12.72-30.2,20.76-8.7,7.66-18.27,15.11-29.82,17.72-3.98.85-8.62,2.08-12.31-.25-4.27-3.36-5.32-9.12-6.13-14.18-1.31-13.41-.44-26.91-.61-40.36-7.84-.81-16.16-2.46-22.22-7.88-5.9-5.31-8.42-13.22-10.02-20.76-5.1-26.63-9.68-53.36-13.51-80.2-1.13-9.22-.63-19.15,4.24-27.32,5.13-8.76,14.34-14.22,23.8-17.21,59.5-18.65,119.2-36.64,178.99-54.33,6.23-1.91,12.51-3.7,18.91-5h.01ZM1015.31,86.94c-59.81,19.04-120.1,36.54-179.9,55.6-6.31,2.21-13.02,5.07-16.84,10.87-3.76,5.71-3.26,12.9-2.35,19.36,3.34,27.72,8.12,55.24,13.01,82.73.93,5.15,3.15,10.45,7.61,13.5,3.9,2.73,8.88,3.22,13.51,2.77,3.91-.34,8.46.86,10.52,4.49,2.46,4.22,1.72,9.29,1.61,13.94-.01,12.66-.01,25.33,0,38,4.57-3.11,9.42-5.9,13.42-9.77,14.08-13.09,27.88-26.46,41.85-39.65,3.54-3.15,7.8-6,12.67-6.29,42.81-2.03,85.7-2.7,128.46-5.77,6.97-.55,14.31-2.35,19.5-7.33,5.34-5.25,7.21-12.92,7.65-20.16,1.86-36.16,3.45-72.38,2.74-108.58-.4-8.28.13-16.75-2.21-24.8-1.93-7.04-5.99-13.56-11.89-17.94-9.55-7.07-22.08-8.56-33.6-7.18-8.78,1.18-17.28,3.75-25.76,6.22h0Z"/>
        <path class="cls-2" d="M741.67,426.67c18.53-7.21,37.08-14.41,55.63-21.58,2.37-1.19,5.71.08,6.31,2.76.8,2.24-.68,4.79-2.86,5.54-7.86,3.09-15.76,6.08-23.62,9.19,12.26,31.55,24.49,63.12,36.73,94.67,1.4,2.78-.8,6.39-3.88,6.51-2.13.18-4.16-1.28-4.76-3.3-12.22-31.53-24.46-63.04-36.67-94.57-7.82,2.99-15.61,6.06-23.42,9.07-2.2.99-5.21.23-6.18-2.11-1.14-2.35.17-5.47,2.72-6.19h0Z"/>
        <path class="cls-2" d="M480.08,406.29c7.57-1.21,15.71.08,22.03,4.59,7.81,5.24,11.46,14.79,12.16,23.86.3,2.07.12,4.66-1.86,5.87-2.74,2-7.21-.13-7.19-3.57-.21-5.71-1.6-11.66-5.35-16.12-4.12-4.69-10.71-6.65-16.8-5.89-9.59.92-17.49,7.5-23.32,14.72-8.84,11.23-14.43,24.89-16.63,38.98-1.17,8.55-1.35,17.68,2.23,25.72,2.81,5.66,7.49,10.74,13.63,12.73,7.04,2.28,15.02-.5,19.94-5.82,1.44-1.49,2.39-3.34,3.59-5.01,1.86-2.52,6.42-1.93,7.6.97,1.47,2.66-.67,5.35-2.12,7.47-7.59,10.85-23.31,15.6-35.3,9.49-10.03-4.78-16.82-14.93-18.7-25.74-2.16-12.72.05-25.8,4.18-37.89,3.97-11.28,9.76-22.11,18.04-30.81,6.33-6.76,14.58-12.17,23.88-13.55h-.01Z"/>
        <path class="cls-2" d="M531.83,423.01c.67-3.64,5.96-4.45,8.06-1.61,1.6,1.94.67,4.55.21,6.73,7.03-3.91,15.59-4.87,23.3-2.55,10.06,3.08,18.42,10.95,22.45,20.62,3.8,8.89,4.26,18.88,2.82,28.34-2.05,12.32-7.75,24.48-17.54,32.51-8.42,6.89-19.99,8.22-30.48,7.21,8,6.09,15.77,12.48,23.66,18.7,1.92,1.57,4.82,3.08,4.52,6.01.06,3.58-4.66,5.53-7.32,3.3-13.01-10.26-25.93-20.62-38.92-30.9-1.28,6.01-2.52,12.03-3.82,18.04-.67,3.25-5.18,4.27-7.5,2.13-1.57-1.25-1.77-3.43-1.23-5.24,7.3-34.42,14.46-68.87,21.79-103.29h0ZM549.67,434.01c-4.7,1.42-9.34,4.05-12.42,7.87-4.26,19.69-8.3,39.42-12.5,59.12,9.57,3.71,20.17,5.86,30.37,3.8,6.27-1.22,11.67-5.19,15.46-10.22,6.35-8.37,9.54-18.9,9.73-29.34.02-8.81-2.53-18.04-8.9-24.39-5.47-5.69-13.92-9.15-21.74-6.83h0Z"/>
        <path class="cls-2" d="M681.71,435.46c15.14-1.77,30.27-3.56,45.42-5.23,3.3-.23,5.71,3.64,4.13,6.52-.69,1.47-2.28,2.28-3.83,2.44-13.36,1.59-26.72,3.03-40.06,4.68,2.9,24.46,5.62,48.95,8.55,73.4,13.44-1.51,26.88-3.11,40.33-4.64,2.16-.38,4.54.87,5.16,3.05.91,2.57-1.06,5.61-3.78,5.8-13.58,1.68-27.2,3.03-40.76,4.81.79,6.13,1.48,12.28,2.16,18.42.43,2.2-.99,4.57-3.18,5.12-2.59.86-5.71-1.04-5.88-3.81-4.1-35.38-8.2-70.75-12.28-106.13-.15-2.28,1.82-4.23,4.03-4.42h0Z"/>
        <path class="cls-2" d="M629.62,437.23c1.26-3.68,7.23-3.74,8.51-.04,7.17,35.11,14.37,70.24,21.55,105.36.36,2.5,1.82,5.43.01,7.7-2.03,2.94-7.42,2.01-8.1-1.58-1.53-7.06-2.87-14.16-4.39-21.22-13.09-.97-26.19-1.91-39.28-2.83-2.42,6.66-4.75,13.36-7.23,19.99-1.22,3.37-6.42,3.62-8.16.57-1.36-2-.27-4.34.48-6.33,12.24-33.87,24.35-67.78,36.6-101.63h0ZM611.06,515.89c11.44.76,22.86,1.69,34.3,2.41-4.29-20.74-8.48-41.51-12.76-62.25-7.17,19.95-14.34,39.91-21.54,59.84Z"/>
      </g>
    </g>
  </g>
</svg>